<?xml version="1.0" standalone="no"?>
<!DOCTYPE svg PUBLIC "-//W3C//DTD SVG 1.1//EN" "http://www.w3.org/Graphics/SVG/1.1/DTD/svg11.dtd" >
<svg xmlns="http://www.w3.org/2000/svg">
<metadata></metadata>
<defs>
<font id="rolloglideregular" horiz-adv-x="837" >
<font-face units-per-em="2048" ascent="1638" descent="-410" />
<missing-glyph horiz-adv-x="565" />
<glyph horiz-adv-x="0" />
<glyph unicode="&#xd;" horiz-adv-x="565" />
<glyph unicode=" "  horiz-adv-x="565" />
<glyph unicode="&#x09;" horiz-adv-x="565" />
<glyph unicode="&#xa0;" horiz-adv-x="565" />
<glyph unicode="!" horiz-adv-x="337" d="M80 332v786q0 27 26 27q27 0 27 -27v-786q0 -27 -27 -27t-26 27zM82 27q0 26 27 26h202q27 0 27 -26q0 -27 -27 -27h-202q-27 0 -27 27zM82 129q0 27 27 27h202q27 0 27 -27t-27 -27h-202q-27 0 -27 27zM82 231q0 27 27 27h202q27 0 27 -27t-27 -26h-202q-27 0 -27 26z M182 332v786q0 27 27 27t27 -27v-786q0 -27 -27 -27t-27 27zM285 332v786q0 27 26 27q27 0 27 -27v-786q0 -27 -27 -27t-26 27z" />
<glyph unicode="&#x22;" horiz-adv-x="753" d="M80 741v377q0 27 26 27q27 0 27 -27v-377q0 -27 -27 -26q-27 0 -26 26zM182 741v377q0 27 27 27t27 -27v-377q0 -27 -27 -26q-27 0 -27 26zM285 741v377q0 27 26 27q27 0 27 -27v-377q0 -27 -27 -26q-27 0 -26 26zM489 741v377q0 27 27 27t27 -27v-377q0 -27 -27 -26 q-27 0 -27 26zM592 741v377q0 27 26 27q27 0 27 -27v-377q0 -27 -27 -26q-27 0 -26 26zM694 741v377q0 27 27 27t27 -27v-377q0 -27 -27 -26q-27 0 -27 26z" />
<glyph unicode="#" horiz-adv-x="1292" d="M78 705q0 14 26 20l369 80l189 325q10 16 24 17q12 0 23 -17l190 -325l367 -80q27 -6 26 -20q0 -8 -12 -23l-250 -281l37 -374q2 -18 -9 -27.5t-28 -1.5l-344 154l-346 -154q-16 -8 -27.5 1t-9.5 28l39 374l-252 281q-12 14 -12 23zM160 684l229 -256q8 -8 6 -20 l-35 -342l314 139q12 4 22 0l314 -139l-35 342q0 10 8 20l227 256l-336 72q-10 2 -16 12l-172 297l-174 -297q-4 -10 -16 -12zM270 643q0 14 27 21l242 51l123 213q12 20 22 20q12 0 25 -20l122 -213l242 -51q27 -6 27 -21q0 -10 -13 -25l-163 -182l24 -246q2 -18 -10 -26 q-10 -8 -27 0l-225 98l-225 -98q-18 -8 -29 0q-10 8 -10 26l27 246l-166 182q-12 12 -13 25zM354 621l142 -158q8 -10 6 -21l-21 -211l193 84q12 6 22 0l195 -84l-23 211q1 13 9 21l141 158l-209 45q-10 2 -16 12l-107 184l-106 -184q-6 -10 -19 -12zM467 580q0 12 33 22 q18 4 104 23q66 117 84 116q11 0 21 -16l57 -100q100 -23 104 -23q33 -10 33 -22t-86 -109q10 -106 10 -115q0 -31 -18 -30q-12 0 -123 49q-113 -49 -125 -49q-18 0 -18 30q0 8 12 115q-88 96 -88 109zM547 557q61 -68 61 -86q-2 -8 -8 -76q78 35 86 35t84 -35l-8 76 q0 18 61 86q-78 18 -88 24t-49 76q-41 -70 -50 -76t-89 -24z" />
<glyph unicode="$" horiz-adv-x="630" d="M80 346q0 27 26 27q27 0 27 -27q0 -92 65.5 -156.5t157.5 -64.5t157 64.5t65 156.5v289h-267q-27 0 -26 27v112q0 31 20.5 51.5t50.5 20.5q29 0 49.5 -21.5t20.5 -50.5q0 -27 -27 -26q-27 0 -26 26q0 18 -17 19q-18 0 -18 -19v-86h266q27 0 27 -26v-316q0 -166 -148 -244 v-75q0 -27 -26 -27q-27 0 -27 27v55q-25 -8 -49 -10v-45q0 -27 -27 -27t-26 27v45q-25 2 -49 10v-55q0 -27 -27 -27t-27 27v75q-145 80 -145 244zM80 459v315q0 164 145 244v102q0 27 27 27t27 -27v-82q25 8 49 11v71q0 27 26 27q27 0 27 -27v-71q25 -2 49 -11v82 q0 27 27 27t26 -27v-102q147 -78 148 -244q0 -27 -27 -26q-27 0 -26 26q0 92 -64.5 157.5t-157.5 65.5q-92 0 -157.5 -65.5t-65.5 -157.5v-289h266q27 0 27 -26v-113q0 -29 -20.5 -49.5t-49.5 -20.5q-72 0 -71 70q0 27 26 27q27 0 27 -27q0 -16 18 -16q16 0 17 16v86h-267 q-27 0 -26 27zM182 346q0 27 27 27t27 -27q0 -51 34.5 -85t85.5 -34q49 0 84 35t35 84v186h-266q-27 0 -27 27v215q0 72 51.5 123t122.5 51q72 0 122 -51t50 -123q0 -27 -26 -26q-27 0 -27 26q0 49 -34.5 85t-84.5 36q-51 0 -85.5 -35t-34.5 -86v-188h266q27 0 26 -27v-213 q0 -72 -50 -122t-122 -50t-123 50t-51 122z" />
<glyph unicode="%" horiz-adv-x="1366" d="M80 870q0 115 80.5 195t195.5 80q113 0 194 -81t81 -194q0 -115 -80 -195.5t-195 -80.5t-195.5 81t-80.5 195zM133 870q0 -92 65.5 -157.5t157.5 -65.5t157 65.5t65 157.5q0 90 -66 156t-156 66q-92 0 -157.5 -64.5t-65.5 -157.5zM182 870q0 72 51 122t123 50 q70 0 121 -51t51 -121q0 -72 -50 -123t-122 -51t-123 51.5t-51 122.5zM236 870q0 -51 34.5 -85.5t85.5 -34.5t85 34.5t34 85.5q0 49 -35 84t-84 35q-51 0 -85.5 -33.5t-34.5 -85.5zM285 870q0 70 71 70q29 0 49.5 -20.5t20.5 -49.5q0 -72 -70 -71q-71 -1 -71 71zM338 870 q0 -18 18 -18q16 0 17 18q0 16 -17 17q-18 -1 -18 -17zM432 33l295 1091q6 20 25 21q35 0 26 -33l-295 -1092q-6 -20 -24 -20q-35 0 -27 33zM535 33l294 1091q6 20 25 21q35 0 27 -33l-295 -1092q-6 -20 -25 -20q-34 0 -26 33zM637 33l295 1091q6 20 24 21q35 0 27 -33 l-295 -1092q-6 -20 -24 -20q-35 0 -27 33zM811 276q0 115 79.5 195t194.5 80t196 -80t81 -195t-81 -195.5t-196 -80.5t-194.5 81t-79.5 195zM864 276q0 -92 64.5 -157.5t156.5 -65.5t158 65.5t66 157.5t-66 157t-158 65t-156.5 -64.5t-64.5 -157.5zM913 276q0 72 50 122.5 t122 50.5t123.5 -50.5t51.5 -122.5t-51.5 -123t-123.5 -51t-122 51.5t-50 122.5zM967 276q0 -51 33.5 -85.5t84.5 -34.5t86 34.5t35 85.5q0 49 -36 84t-85 35t-83.5 -34.5t-34.5 -84.5zM1016 276q0 29 20.5 49.5t48.5 20.5q29 0 50.5 -20.5t21.5 -49.5q0 -31 -20.5 -51 t-51.5 -20q-69 -1 -69 71zM1069 276q0 -18 16 -18q18 0 19 18q0 16 -19 17q-16 -1 -16 -17z" />
<glyph unicode="&#x26;" horiz-adv-x="1802" d="M80 582q0 115 81 195.5t195 80.5q115 0 195 -81t80 -195v-248q0 -29 -27 -29q-25 0 -24 27l-2 250q0 92 -64.5 157.5t-157.5 65.5q-92 0 -157.5 -65.5t-65.5 -157.5t65.5 -157t157.5 -65h17v50h-17q-72 0 -123 50t-51 122t51.5 123t122.5 51q72 0 122 -51.5t50 -122.5 l-2 -250q0 -27 -24 -27q-27 0 -27 29v248q0 49 -34.5 84.5t-84.5 35.5q-51 0 -85.5 -34.5t-34.5 -85.5t34.5 -85t85.5 -34h17v49h-17q-72 0 -71 70q0 31 20.5 51t50.5 20q29 0 49.5 -21.5t20.5 -49.5v-248q0 -27 -27 -27h-43q-115 0 -195.5 80t-80.5 195zM338 582 q0 -18 18 -17h17v17q0 18 -17 18q-18 0 -18 -18zM666 332v239q0 115 79.5 196t194.5 81t196 -81t81 -196l-3 -239q0 -27 -26 -27q-27 0 -27 29l2 237q0 92 -65.5 158t-157.5 66t-156.5 -65.5t-64.5 -158.5v-237q0 -29 -27 -29t-26 27zM766 334l2 237q0 72 50 123t122 51 t123 -51t51 -123v-237q0 -27 -27 -27q-26 0 -26 25v239q0 49 -36 85t-85 36t-84 -35.5t-35 -86t-2 -238.5q0 -25 -26 -25q-27 0 -27 27zM870 332v239q0 29 20.5 50.5t49.5 21.5t50.5 -21.5t21.5 -50.5q0 4 -2 -239q0 -27 -27 -27t-27 29l2 237q0 18 -18 19q-16 0 -16 -19 v-237q0 -29 -27 -29t-27 27zM1247 334v293q0 27 27 26h248q29 0 50 -21.5t21 -49.5q0 -29 -21.5 -49.5t-49.5 -20.5h-43q-27 0 -27 27v61h-51v-137h121q49 0 84.5 34.5t35.5 84.5q0 49 -35.5 84.5t-84.5 35.5h-246q-27 0 -27 27t27 27h246q72 0 123 -51.5t51 -122.5 q0 -72 -51.5 -122t-122.5 -50h-146q-27 0 -26 24l-2 166h-48v-240h222q92 0 157.5 64.5t65.5 157.5q0 92 -65.5 157.5t-157.5 65.5h-246q-27 0 -27 26q0 27 27 27h246q115 0 195.5 -81t80.5 -195q0 -115 -81 -195t-195 -80h-248q-27 0 -27 27zM1505 565h17q18 0 18 17 q0 18 -18 18h-17v-35z" />
<glyph unicode="'" horiz-adv-x="339" d="M80 741v377q0 27 26 27q27 0 27 -27v-377q0 -27 -27 -26q-27 0 -26 26zM182 741v377q0 27 27 27t27 -27v-377q0 -27 -27 -26q-27 0 -27 26zM285 741v377q0 27 26 27q27 0 27 -27v-377q0 -27 -27 -26q-27 0 -26 26z" />
<glyph unicode="(" horiz-adv-x="569" d="M80 174v799q0 158 110.5 267.5t268.5 109.5h84q27 0 26 -27q1 -27 -26 -27h-84q-135 0 -230.5 -94t-95.5 -229v-799q0 -135 95.5 -230.5t230.5 -95.5h84q27 0 26 -26q0 -27 -26 -27h-84q-160 0 -269.5 109.5t-109.5 269.5zM182 174v799q0 115 81 194.5t196 79.5h84 q27 0 26 -26q0 -27 -26 -27h-84q-92 0 -157.5 -64.5t-65.5 -156.5v-799q0 -92 65.5 -157.5t157.5 -65.5h84q27 0 26 -27q1 -26 -26 -26h-84q-115 0 -196 80.5t-81 195.5zM285 174v799q0 72 51 122t123 50h84q27 0 26 -27q1 -26 -26 -26h-84q-51 0 -86 -34t-35 -85v-799 q0 -51 35 -86t86 -35h84q27 0 26 -26q0 -27 -26 -27h-84q-72 0 -123 51t-51 123z" />
<glyph unicode=")" horiz-adv-x="569" d="M80 27q0 -27 26 -27h87q72 0 122 51t50 123v799q0 70 -51.5 121t-120.5 51h-87q-27 0 -26 -27q-1 -26 26 -26h87q49 0 83.5 -35t34.5 -84v-799q0 -51 -33.5 -86t-84.5 -35h-87q-27 0 -26 -26zM80 -76q-1 -26 26 -26h87q115 0 194.5 80.5t79.5 195.5v799q0 113 -81 193.5 t-193 80.5h-87q-27 0 -26 -26q0 -27 26 -27h87q90 0 155.5 -65.5t65.5 -155.5v-799q0 -92 -64.5 -157.5t-156.5 -65.5h-87q-27 0 -26 -27zM80 -178q0 -27 26 -27h87q158 0 267 110.5t109 268.5v799q0 158 -109.5 267.5t-266.5 109.5h-87q-27 0 -26 -27q-1 -27 26 -27h87 q133 0 228 -95t95 -228v-799q0 -135 -94 -230.5t-229 -95.5h-87q-27 0 -26 -26z" />
<glyph unicode="*" horiz-adv-x="1083" d="M80 690q0 14 26 21l285 61l146 252q12 20 22 20q12 0 25 -20l145 -252l285 -61q27 -6 26 -21q0 -8 -12 -22l-194 -217l30 -289q2 -18 -10 -27q-10 -8 -27 0l-266 117l-266 -117q-18 -8 -29 0q-12 8 -10 27l31 289l-195 217q-12 14 -12 22zM162 670l172 -193q8 -8 6 -20 l-27 -256l236 104q12 4 22 0l236 -104l-27 256q-2 12 6 20l172 193l-251 53q-10 2 -17 12l-129 223l-131 -223q-6 -10 -16 -12zM276 627q0 16 44.5 26.5t136.5 28.5q20 39 65 117q23 39 39 39q14 0 37 -39q14 -27 66 -117l137 -29q43 -10 43 -26q0 -13 -117 -142l16 -155 q0 -33 -18 -33q-12 0 -164 65q-154 -66 -166 -65q-18 0 -18 33l16 155q-117 129 -117 142zM356 606l84 -94q8 -8 6 -20l-12 -125l115 51q12 4 22 0l115 -51l-12 125q-2 12 6 20l84 94l-123 27q-12 2 -16 12l-64 109l-65 -109q-4 -10 -17 -12zM471 565q0 16 23 21l28 6 q25 43 41 43q10 0 21 -19l14 -24q53 -12 53 -29q0 -8 -10 -20l-20 -23q6 -61 -17 -61q-8 0 -16 4l-27 12l-29 -12q-10 -4 -16 -4q-23 0 -16 61q-29 31 -29 45zM549 543q2 -6 4 -15q6 2 14 0q2 9 4 15q-6 4 -10 10q-6 -6 -12 -10z" />
<glyph unicode="+" horiz-adv-x="1292" d="M78 705q0 14 26 20l369 80l189 325q10 16 24 17q12 0 23 -17l190 -325l367 -80q27 -6 26 -20q0 -8 -12 -23l-250 -281l37 -374q2 -18 -9 -27.5t-28 -1.5l-344 154l-346 -154q-16 -8 -27.5 1t-9.5 28l39 374l-252 281q-12 14 -12 23zM160 684l229 -256q8 -8 6 -20 l-35 -342l314 139q12 4 22 0l314 -139l-35 342q0 10 8 20l227 256l-336 72q-10 2 -16 12l-172 297l-174 -297q-4 -10 -16 -12zM270 643q0 14 27 21l242 51l123 213q12 20 22 20q12 0 25 -20l122 -213l242 -51q27 -6 27 -21q0 -10 -13 -25l-163 -182l24 -246q2 -18 -10 -26 q-10 -8 -27 0l-225 98l-225 -98q-18 -8 -29 0q-10 8 -10 26l27 246l-166 182q-12 12 -13 25zM354 621l142 -158q8 -10 6 -21l-21 -211l193 84q12 6 22 0l195 -84l-23 211q1 13 9 21l141 158l-209 45q-10 2 -16 12l-107 184l-106 -184q-6 -10 -19 -12zM467 580q0 12 33 22 q18 4 104 23q66 117 84 116q11 0 21 -16l57 -100q100 -23 104 -23q33 -10 33 -22t-86 -109q10 -106 10 -115q0 -31 -18 -30q-12 0 -123 49q-113 -49 -125 -49q-18 0 -18 30q0 8 12 115q-88 96 -88 109zM547 557q61 -68 61 -86q-2 -8 -8 -76q78 35 86 35t84 -35l-8 76 q0 18 61 86q-78 18 -88 24t-49 76q-41 -70 -50 -76t-89 -24z" />
<glyph unicode="," horiz-adv-x="339" d="M80 -154v439q0 27 26 26q27 1 27 -26v-439q0 -27 -27 -26q-27 0 -26 26zM182 -154v439q0 27 27 26q27 1 27 -26v-439q0 -27 -27 -26q-27 0 -27 26zM285 -154v439q0 27 26 26q27 1 27 -26v-439q0 -27 -27 -26q-27 0 -26 26z" />
<glyph unicode="-" horiz-adv-x="581" d="M96 416q0 26 27 26h438q27 0 27 -26q0 -27 -27 -27h-438q-27 0 -27 27zM96 518q0 27 27 27h438q27 0 27 -27t-27 -26h-438q-27 0 -27 26zM96 621q0 26 27 26h438q27 0 27 -26q0 -27 -27 -27h-438q-27 0 -27 27z" />
<glyph unicode="." horiz-adv-x="339" d="M80 27v258q0 27 26 26q27 1 27 -26v-258q0 -27 -27 -27t-26 27zM182 27v258q0 27 27 26q27 1 27 -26v-258q0 -27 -27 -27t-27 27zM285 27v258q0 27 26 26q27 1 27 -26v-258q0 -27 -27 -27t-26 27z" />
<glyph unicode="/" horiz-adv-x="634" d="M80 33l295 1091q6 20 26 21q35 0 27 -33l-295 -1092q-6 -20 -27 -20q-34 0 -26 33zM182 33l295 1091q6 20 27 21q35 0 26 -33l-294 -1092q-6 -20 -27 -20q-35 0 -27 33zM285 33l295 1091q6 20 26 21q35 0 27 -33l-295 -1092q-6 -20 -27 -20q-34 0 -26 33z" />
<glyph unicode="0" d="M80 379v389q0 158 110.5 267.5t268.5 109.5t267.5 -109.5t109.5 -267.5v-389q0 -158 -110 -268.5t-267 -110.5q-160 0 -269.5 109.5t-109.5 269.5zM133 379q0 -135 95.5 -230.5t230.5 -95.5t229 95.5t94 230.5v389q0 133 -95 228.5t-228 95.5q-135 0 -230.5 -94.5 t-95.5 -229.5v-389zM182 379v389q0 115 81 194.5t196 79.5q113 0 193.5 -80.5t80.5 -193.5v-389q0 -115 -80 -196t-194 -81q-115 0 -196 81t-81 196zM236 379q0 -92 65.5 -157.5t157.5 -65.5t156.5 65.5t64.5 157.5v389q0 90 -65.5 155.5t-155.5 65.5q-92 0 -157.5 -64.5 t-65.5 -156.5v-389zM285 379v389q0 72 51 122t123 50q70 0 121 -51t51 -121v-389q0 -72 -50.5 -123t-121.5 -51q-72 0 -123 51t-51 123zM338 379q0 -51 35 -86t86 -35t85 35t34 86v389q0 49 -35 84t-84 35q-51 0 -86 -34t-35 -85v-389z" />
<glyph unicode="1" horiz-adv-x="337" d="M80 27v1091q0 27 26 27q27 0 27 -27v-1091q0 -27 -27 -27q-26 0 -26 27zM182 27v1091q0 27 27 27t27 -27v-1091q0 -27 -27 -27t-27 27zM285 27v1091q0 27 26 27q27 0 27 -27v-1091q0 -27 -27 -27q-26 0 -26 27z" />
<glyph unicode="2" d="M80 379v242q0 27 26 26h353q51 0 85 35t34 86q0 49 -35 84t-84 35q-51 0 -86 -34t-35 -85q0 -29 -27 -29q-26 0 -26 29q0 72 51 122t123 50q70 0 121 -51t51 -121q0 -72 -50.5 -123t-121.5 -51h-326v-215q0 -135 95.5 -230.5t230.5 -95.5h350q27 0 27 -26q0 -27 -27 -27 h-350q-160 0 -269.5 109.5t-109.5 269.5zM80 768q0 158 110.5 267.5t268.5 109.5t267.5 -109.5t109.5 -267.5t-110 -268.5t-267 -110.5h-121v-10q0 -51 35 -86t86 -35h350q27 0 27 -27t-27 -26h-350q-72 0 -123 51t-51 123v37q0 27 26 26h148q135 0 229 95.5t94 230.5 q0 133 -95 228.5t-228 95.5q-135 0 -230.5 -94.5t-95.5 -229.5q0 -29 -27 -29q-26 0 -26 29zM182 379v139q0 27 27 27h250q92 0 156.5 65.5t64.5 157.5q0 90 -65.5 155.5t-155.5 65.5q-92 0 -157.5 -64.5t-65.5 -156.5q0 -29 -27 -29t-27 29q0 115 81 194.5t196 79.5 q113 0 193.5 -80.5t80.5 -193.5q0 -115 -80 -195.5t-194 -80.5h-223v-113q0 -92 65.5 -157.5t157.5 -65.5h350q27 0 27 -27t-27 -27h-350q-115 0 -196 81t-81 196z" />
<glyph unicode="3" horiz-adv-x="839" d="M80 27q0 27 26 26h353q135 0 229 95.5t94 230.5v389q0 133 -95 228.5t-228 95.5h-353q-27 0 -26 26q-1 27 26 27h353q158 0 267.5 -109.5t109.5 -267.5v-389q0 -158 -110 -268.5t-267 -110.5h-353q-27 0 -26 27zM80 129q-1 27 26 27h353q92 0 156.5 65.5t64.5 157.5v389 q0 90 -65.5 155.5t-155.5 65.5h-353q-27 0 -26 27q0 27 26 26h353q113 0 193.5 -80.5t80.5 -193.5v-389q0 -115 -80 -196t-194 -81h-353q-27 0 -26 27zM80 231q0 27 26 27h353q51 0 85 35t34 86v67h-472q-27 0 -26 27q-1 27 26 27h472v49h-472q-27 0 -26 26q0 27 26 27h472 v49h-472q-27 0 -26 27q0 27 26 27h472v63q0 49 -35 84t-84 35h-353q-27 0 -26 26q0 27 26 27h353q70 0 121 -51t51 -121v-389q0 -72 -50.5 -123t-121.5 -51h-353q-27 0 -26 26z" />
<glyph unicode="4" d="M80 825v293q0 27 26 27q27 0 27 -27v-293q0 -135 95.5 -230t230.5 -95h119v49h-119q-115 0 -196 81t-81 195v293q0 27 27 27t27 -27v-293q0 -92 65.5 -157.5t157.5 -65.5h119v49h-119q-72 0 -123 51.5t-51 122.5v293q0 27 26 27q27 0 27 -27v-293q0 -51 35 -85.5 t86 -34.5h119v413q0 27 26 27q27 0 27 -27v-1091q0 -27 -27 -27q-26 0 -26 27v419h-119q-160 0 -269.5 110t-109.5 269zM680 27v1091q0 27 27 27t26 -27v-1091q0 -27 -26 -27q-27 0 -27 27zM782 27v1091q0 27 27 27t27 -27v-1091q0 -27 -27 -27t-27 27z" />
<glyph unicode="5" d="M80 379q0 25 26 24q27 0 27 -24q0 -135 95.5 -230.5t230.5 -95.5t229 95.5t94 230.5q0 133 -95 228t-228 95h-148q-27 0 -26 27v184q0 27 26 27h498q27 0 27 -27q0 -26 -27 -26h-471v-131h121q158 0 267.5 -109.5t109.5 -267.5t-110 -268.5t-267 -110.5 q-160 0 -269.5 109.5t-109.5 269.5zM80 524v594q0 27 26 27h703q27 0 27 -27q0 -26 -27 -26h-676v-541h326q70 0 121 -51t51 -121q0 -72 -50.5 -123t-121.5 -51q-72 0 -123 51t-51 123q0 27 26 27q27 0 27 -27q0 -51 35 -86t86 -35t85 35t34 86q0 49 -35 84t-84 35h-353 q-27 0 -26 26zM182 379q0 27 27 27t27 -27q0 -92 65.5 -157.5t157.5 -65.5t156.5 65.5t64.5 157.5q0 90 -65.5 155.5t-155.5 65.5h-250q-27 0 -27 27v389q0 27 27 26h600q27 0 27 -26q0 -27 -27 -27h-573v-336h223q113 0 193.5 -80.5t80.5 -193.5q0 -115 -80 -196t-194 -81 q-115 0 -196 81t-81 196z" />
<glyph unicode="6" d="M80 379v389q0 158 110.5 267.5t268.5 109.5h350q27 0 27 -27t-27 -26h-350q-135 0 -230.5 -94.5t-95.5 -229.5v-389q0 -135 95.5 -230.5t230.5 -95.5t229 95.5t94 230.5q0 133 -95 228t-228 95q-63 0 -121 -22v-53q57 27 121 26q113 0 193.5 -80.5t80.5 -193.5 q0 -115 -80 -196t-194 -81q-115 0 -196 81t-81 196v389q0 115 81 194.5t196 79.5h350q27 0 27 -26q0 -27 -27 -27h-350q-92 0 -157.5 -64.5t-65.5 -156.5v-389q0 -92 65.5 -157.5t157.5 -65.5t156.5 65.5t64.5 157.5q0 90 -65.5 155.5t-155.5 65.5q-66 0 -121 -35v-63 q51 49 121 49t121 -51t51 -121q0 -72 -50.5 -123t-121.5 -51q-72 0 -123 51t-51 123v389q0 72 51 122t123 50h350q27 0 27 -27q0 -26 -27 -26h-350q-51 0 -86 -34t-35 -85v-31q57 18 121 19q158 0 267.5 -109.5t109.5 -267.5t-110 -268.5t-267 -110.5q-160 0 -269.5 109.5 t-109.5 269.5zM338 379q0 -51 35 -86t86 -35t85 35t34 86q0 49 -35 84t-84 35q-51 0 -86 -34t-35 -85z" />
<glyph unicode="7" d="M80 913q-1 27 26 27h353q70 0 121 -51t51 -121v-741q0 -27 -27 -27t-26 27v741q0 49 -35 84t-84 35h-353q-27 0 -26 26zM80 1016q0 27 26 26h353q113 0 193.5 -80.5t80.5 -193.5v-741q0 -27 -26 -27q-27 0 -27 27v741q0 90 -65.5 155.5t-155.5 65.5h-353q-27 0 -26 27z M80 1118q-1 27 26 27h353q158 0 267.5 -109.5t109.5 -267.5v-741q0 -27 -27 -27t-27 27v741q0 133 -95 228.5t-228 95.5h-353q-27 0 -26 26z" />
<glyph unicode="8" d="M80 379q0 104 53 192q-53 90 -53 197q0 158 110.5 267.5t268.5 109.5t267.5 -109.5t109.5 -267.5q-1 -107 -54 -197q53 -88 54 -192q0 -158 -110 -268.5t-267 -110.5q-160 0 -269.5 109.5t-109.5 269.5zM133 379q0 -135 95.5 -230.5t230.5 -95.5t229 95.5t94 230.5 q0 76 -34 145q-17 -21 -37 -37q23 -53 22 -108q0 -115 -80 -196t-194 -81q-115 0 -196 81t-81 196q0 55 23 108q-20 16 -37 37q-35 -70 -35 -145zM133 768q0 -135 95.5 -230.5t230.5 -95.5t229 95.5t94 230.5q0 133 -95 228.5t-228 95.5q-135 0 -230.5 -94.5t-95.5 -229.5z M182 768q0 115 81 194.5t196 79.5q113 0 193.5 -80.5t80.5 -193.5q0 -115 -79.5 -195.5t-194.5 -80.5t-196 80.5t-81 195.5zM236 379q0 -92 65.5 -157.5t157.5 -65.5t156.5 65.5t64.5 157.5q0 37 -12 74q-20 -15 -45 -25q8 -25 8 -49q0 -74 -49.5 -124t-122.5 -50 q-74 0 -124 50t-50 124q0 25 8 49q-25 10 -45 25q-12 -37 -12 -74zM236 768q0 -92 65.5 -157.5t157.5 -65.5t156.5 65.5t64.5 157.5q0 90 -65.5 155.5t-155.5 65.5q-92 0 -157.5 -64.5t-65.5 -156.5zM285 768q0 72 51 122t123 50q70 0 121 -51t51 -121q0 -72 -50.5 -123 t-121.5 -51q-72 0 -123 51t-51 123zM338 379q0 -51 35 -86t86 -35t85 35t34 86q0 14 -5 29q-55 -18 -114 -19q-62 1 -117 19q-4 -14 -4 -29zM338 768q0 -51 35 -86t86 -35t85 35t34 86q0 49 -35 84t-84 35q-51 0 -86 -34t-35 -85z" />
<glyph unicode="9" d="M80 27q0 27 26 26h353q135 0 229 95.5t94 230.5v389q0 133 -95 228.5t-228 95.5q-135 0 -230.5 -94.5t-95.5 -229.5t95.5 -230.5t230.5 -95.5q61 0 119 23v53q-57 -27 -119 -26q-115 0 -196 80.5t-81 195.5t81 194.5t196 79.5q113 0 193.5 -80.5t80.5 -193.5v-389 q0 -115 -80 -196t-194 -81h-353q-27 0 -26 27q0 27 26 27h353q92 0 156.5 65.5t64.5 157.5v389q0 90 -65.5 155.5t-155.5 65.5q-92 0 -157.5 -64.5t-65.5 -156.5t65.5 -157.5t157.5 -65.5q63 0 119 35v63q-51 -49 -119 -49q-72 0 -123 51t-51 123t51 122t123 50 q70 0 121 -51t51 -121v-389q0 -72 -50.5 -123t-121.5 -51h-353q-27 0 -26 26q-1 27 26 27h353q51 0 85 35t34 86v29q-57 -18 -119 -19q-160 0 -269.5 109.5t-109.5 269.5q0 158 110.5 267.5t268.5 109.5t267.5 -109.5t109.5 -267.5v-389q0 -158 -110 -268.5t-267 -110.5 h-353q-27 0 -26 27zM338 768q0 -51 35 -86t86 -35t85 35t34 86q0 49 -35 84t-84 35q-51 0 -86 -34t-35 -85z" />
<glyph unicode=":" horiz-adv-x="339" d="M80 27v258q0 27 26 26q27 1 27 -26v-258q0 -27 -27 -27t-26 27zM82 588q0 26 27 26h202q27 0 27 -26q0 -27 -27 -27h-202q-27 0 -27 27zM82 690q0 27 27 27h202q27 0 27 -27t-27 -26h-202q-27 0 -27 26zM82 793q0 26 27 26h202q27 0 27 -26q0 -27 -27 -27h-202 q-27 0 -27 27zM182 27v258q0 27 27 26q27 1 27 -26v-258q0 -27 -27 -27t-27 27zM285 27v258q0 27 26 26q27 1 27 -26v-258q0 -27 -27 -27t-26 27z" />
<glyph unicode=";" horiz-adv-x="339" d="M80 -154v439q0 27 26 26q27 1 27 -26v-439q0 -27 -27 -26q-27 0 -26 26zM82 588q0 26 27 26h202q27 0 27 -26q0 -27 -27 -27h-202q-27 0 -27 27zM82 690q0 27 27 27h202q27 0 27 -27t-27 -26h-202q-27 0 -27 26zM82 793q0 26 27 26h202q27 0 27 -26q0 -27 -27 -27h-202 q-27 0 -27 27zM182 -154v439q0 27 27 26q27 1 27 -26v-439q0 -27 -27 -26q-27 0 -27 26zM285 -154v439q0 27 26 26q27 1 27 -26v-439q0 -27 -27 -26q-27 0 -26 26z" />
<glyph unicode="&#x3c;" horiz-adv-x="1083" d="M80 690q0 14 26 21l285 61l146 252q12 20 22 20q12 0 25 -20l145 -252l285 -61q27 -6 26 -21q0 -8 -12 -22l-194 -217l30 -289q2 -18 -10 -27q-10 -8 -27 0l-266 117l-266 -117q-18 -8 -29 0q-12 8 -10 27l31 289l-195 217q-12 14 -12 22zM162 670l172 -193q8 -8 6 -20 l-27 -256l236 104q12 4 22 0l236 -104l-27 256q-2 12 6 20l172 193l-251 53q-10 2 -17 12l-129 223l-131 -223q-6 -10 -16 -12zM276 627q0 16 44.5 26.5t136.5 28.5q20 39 65 117q23 39 39 39q14 0 37 -39q14 -27 66 -117l137 -29q43 -10 43 -26q0 -13 -117 -142l16 -155 q0 -33 -18 -33q-12 0 -164 65q-154 -66 -166 -65q-18 0 -18 33l16 155q-117 129 -117 142zM356 606l84 -94q8 -8 6 -20l-12 -125l115 51q12 4 22 0l115 -51l-12 125q-2 12 6 20l84 94l-123 27q-12 2 -16 12l-64 109l-65 -109q-4 -10 -17 -12zM471 565q0 16 23 21l28 6 q25 43 41 43q10 0 21 -19l14 -24q53 -12 53 -29q0 -8 -10 -20l-20 -23q6 -61 -17 -61q-8 0 -16 4l-27 12l-29 -12q-10 -4 -16 -4q-23 0 -16 61q-29 31 -29 45zM549 543q2 -6 4 -15q6 2 14 0q2 9 4 15q-6 4 -10 10q-6 -6 -12 -10z" />
<glyph unicode="=" horiz-adv-x="1292" d="M78 705q0 14 26 20l369 80l189 325q10 16 24 17q12 0 23 -17l190 -325l367 -80q27 -6 26 -20q0 -8 -12 -23l-250 -281l37 -374q2 -18 -9 -27.5t-28 -1.5l-344 154l-346 -154q-16 -8 -27.5 1t-9.5 28l39 374l-252 281q-12 14 -12 23zM160 684l229 -256q8 -8 6 -20 l-35 -342l314 139q12 4 22 0l314 -139l-35 342q0 10 8 20l227 256l-336 72q-10 2 -16 12l-172 297l-174 -297q-4 -10 -16 -12zM270 643q0 14 27 21l242 51l123 213q12 20 22 20q12 0 25 -20l122 -213l242 -51q27 -6 27 -21q0 -10 -13 -25l-163 -182l24 -246q2 -18 -10 -26 q-10 -8 -27 0l-225 98l-225 -98q-18 -8 -29 0q-10 8 -10 26l27 246l-166 182q-12 12 -13 25zM354 621l142 -158q8 -10 6 -21l-21 -211l193 84q12 6 22 0l195 -84l-23 211q1 13 9 21l141 158l-209 45q-10 2 -16 12l-107 184l-106 -184q-6 -10 -19 -12zM467 580q0 12 33 22 q18 4 104 23q66 117 84 116q11 0 21 -16l57 -100q100 -23 104 -23q33 -10 33 -22t-86 -109q10 -106 10 -115q0 -31 -18 -30q-12 0 -123 49q-113 -49 -125 -49q-18 0 -18 30q0 8 12 115q-88 96 -88 109zM547 557q61 -68 61 -86q-2 -8 -8 -76q78 35 86 35t84 -35l-8 76 q0 18 61 86q-78 18 -88 24t-49 76q-41 -70 -50 -76t-89 -24z" />
<glyph unicode="&#x3e;" horiz-adv-x="1083" d="M80 690q0 14 26 21l285 61l146 252q12 20 22 20q12 0 25 -20l145 -252l285 -61q27 -6 26 -21q0 -8 -12 -22l-194 -217l30 -289q2 -18 -10 -27q-10 -8 -27 0l-266 117l-266 -117q-18 -8 -29 0q-12 8 -10 27l31 289l-195 217q-12 14 -12 22zM162 670l172 -193q8 -8 6 -20 l-27 -256l236 104q12 4 22 0l236 -104l-27 256q-2 12 6 20l172 193l-251 53q-10 2 -17 12l-129 223l-131 -223q-6 -10 -16 -12zM276 627q0 16 44.5 26.5t136.5 28.5q20 39 65 117q23 39 39 39q14 0 37 -39q14 -27 66 -117l137 -29q43 -10 43 -26q0 -13 -117 -142l16 -155 q0 -33 -18 -33q-12 0 -164 65q-154 -66 -166 -65q-18 0 -18 33l16 155q-117 129 -117 142zM356 606l84 -94q8 -8 6 -20l-12 -125l115 51q12 4 22 0l115 -51l-12 125q-2 12 6 20l84 94l-123 27q-12 2 -16 12l-64 109l-65 -109q-4 -10 -17 -12zM471 565q0 16 23 21l28 6 q25 43 41 43q10 0 21 -19l14 -24q53 -12 53 -29q0 -8 -10 -20l-20 -23q6 -61 -17 -61q-8 0 -16 4l-27 12l-29 -12q-10 -4 -16 -4q-23 0 -16 61q-29 31 -29 45zM549 543q2 -6 4 -15q6 2 14 0q2 9 4 15q-6 4 -10 10q-6 -6 -12 -10z" />
<glyph unicode="?" horiz-adv-x="995" d="M80 334v344q0 27 26 27h472v63q0 49 -35 84t-84 35q-51 0 -86 -34t-35 -85q0 -29 -27 -29q-26 0 -26 29q0 72 51 122t123 50q70 0 121 -51t51 -121v-90q0 -27 -27 -27h-471v-317q0 -27 -27 -27t-26 27zM80 768q0 158 110.5 267.5t268.5 109.5t267.5 -109.5t109.5 -267.5 v-295q0 -27 -27 -27h-471v-112q0 -27 -27 -27t-26 27v139q0 27 26 27h471v268q0 133 -95 228.5t-228 95.5q-135 0 -230.5 -94.5t-95.5 -229.5q0 -29 -27 -29q-26 0 -26 29zM82 27q0 26 27 26h202q27 0 27 -26q0 -27 -27 -27h-202q-27 0 -27 27zM82 129q0 27 27 27h202 q27 0 27 -27t-27 -27h-202q-27 0 -27 27zM82 231q0 27 27 27h202q27 0 27 -27t-27 -26h-202q-27 0 -27 26zM182 334v241q0 27 27 27h471v166q0 90 -65.5 155.5t-155.5 65.5q-92 0 -157.5 -64.5t-65.5 -156.5q0 -29 -27 -29t-27 29q0 115 81 194.5t196 79.5 q113 0 193.5 -80.5t80.5 -193.5v-193q0 -27 -26 -26h-471v-215q0 -27 -27 -27t-27 27z" />
<glyph unicode="@" horiz-adv-x="839" d="M80 559q0 158 110.5 268.5t268.5 110.5t267.5 -110.5t109.5 -268.5t-109.5 -267.5t-267.5 -109.5t-268.5 109.5t-110.5 267.5zM133 559q0 -135 95.5 -229t230.5 -94t229 94t94 229t-94 230.5t-229 95.5t-230.5 -95.5t-95.5 -230.5zM182 559q0 115 81 196t196 81 t194.5 -81t79.5 -196t-79.5 -194.5t-194.5 -79.5t-196 79.5t-81 194.5zM236 559q0 -92 65.5 -156.5t157.5 -64.5t156.5 64.5t64.5 156.5t-64.5 157.5t-156.5 65.5t-157.5 -65.5t-65.5 -157.5zM285 559q0 72 51 123t123 51t122 -51t50 -123t-50.5 -122t-121.5 -50 q-72 0 -123 50t-51 122zM338 559q0 -51 35 -85t86 -34q49 0 84 35t35 84t-35 85t-84 36q-51 0 -86 -35t-35 -86z" />
<glyph unicode="A" horiz-adv-x="835" d="M80 27v741q0 158 110.5 267.5t268.5 109.5t267.5 -109.5t109.5 -267.5v-741q0 -27 -27 -27t-27 27v741q0 133 -95 228.5t-228 95.5q-135 0 -230.5 -94.5t-95.5 -229.5v-741q0 -27 -27 -27q-26 0 -26 27zM182 27v741q0 115 81 194.5t196 79.5q113 0 193.5 -80.5 t80.5 -193.5v-741q0 -27 -26 -27q-27 0 -27 27v741q0 90 -65.5 155.5t-155.5 65.5q-92 0 -157.5 -64.5t-65.5 -156.5v-741q0 -27 -27 -27t-27 27zM285 27v741q0 72 51 122t123 50q70 0 121 -51t51 -121v-741q0 -27 -27 -27t-26 27v362h-240v-362q0 -27 -27 -27t-26 27z M338 442h240v50h-240v-50zM338 545h240v49h-240v-49zM338 647h240v121q0 49 -35 84t-84 35q-51 0 -86 -34t-35 -85v-121z" />
<glyph unicode="B" d="M80 27v741q0 158 110.5 267.5t268.5 109.5t267.5 -109.5t109.5 -267.5q-1 -107 -54 -197q53 -88 54 -192q0 -158 -110 -268.5t-267 -110.5h-353q-27 0 -26 27zM133 53h326q135 0 229 95.5t94 230.5q0 76 -34 145q-16 -20 -37 -37q23 -53 22 -108q0 -115 -80 -196 t-194 -81h-250q-27 0 -27 27v639q0 115 81 194.5t196 79.5q113 0 193.5 -80.5t80.5 -193.5q0 -115 -80 -195.5t-194 -80.5h-121v-50h121q135 0 229 95.5t94 230.5q0 133 -95 228.5t-228 95.5q-135 0 -230.5 -94.5t-95.5 -229.5v-715zM236 156h223q92 0 156.5 65.5 t64.5 157.5q0 37 -12 74q-20 -14 -45 -25q8 -25 8 -49q0 -72 -50.5 -123t-121.5 -51h-148q-27 0 -26 26v537q0 74 50 123t124 49q70 0 121 -51t51 -121q0 -72 -50.5 -123t-121.5 -51h-121v-49h121q92 0 156.5 65.5t64.5 157.5q0 90 -65.5 155.5t-155.5 65.5 q-92 0 -157.5 -64.5t-65.5 -156.5v-612zM338 258h121q51 0 85 35t34 86q0 14 -5 29q-55 -18 -114 -19h-121v-131zM338 647h121q51 0 85 35t34 86q0 49 -35 84t-84 35q-51 0 -86 -34t-35 -85v-121z" />
<glyph unicode="C" horiz-adv-x="835" d="M80 379v389q0 158 110.5 267.5t268.5 109.5h350q27 0 27 -27q0 -26 -27 -26h-350q-135 0 -230.5 -94.5t-95.5 -229.5v-389q0 -135 95.5 -230.5t230.5 -95.5h350q27 0 27 -26q0 -27 -27 -27h-350q-160 0 -269.5 109.5t-109.5 269.5zM182 379v389q0 115 81 194.5t196 79.5 h350q27 0 27 -26q0 -27 -27 -27h-350q-92 0 -157.5 -64.5t-65.5 -156.5v-389q0 -92 65.5 -157.5t157.5 -65.5h350q27 0 27 -27t-27 -27h-350q-115 0 -196 81t-81 196zM285 379v389q0 72 51 122t123 50h350q27 0 27 -27q0 -26 -27 -26h-350q-51 0 -86 -34t-35 -85v-389 q0 -51 35 -86t86 -35h350q27 0 27 -27q0 -26 -25 -26h-2h-350q-72 0 -123 51t-51 123z" />
<glyph unicode="D" horiz-adv-x="835" d="M80 27v1091q0 27 26 27h353q158 0 267.5 -109.5t109.5 -267.5v-389q0 -158 -110 -268.5t-267 -110.5h-353q-27 0 -26 27zM133 53h326q135 0 229 95.5t94 230.5v389q0 133 -95 228.5t-228 95.5h-326v-1039zM182 129v887q0 26 25 26h2h250q113 0 193.5 -80.5t80.5 -193.5 v-389q0 -115 -80 -196t-194 -81h-250q-27 0 -27 27zM236 156h223q92 0 156.5 65.5t64.5 157.5v389q0 90 -65.5 155.5t-155.5 65.5h-223v-833zM285 231v682q0 27 26 27h148q70 0 121 -51t51 -121v-389q0 -72 -50.5 -123t-121.5 -51h-148q-27 0 -26 26zM338 258h121 q51 0 85 35t34 86v389q0 49 -35 84t-84 35h-121v-629z" />
<glyph unicode="E" horiz-adv-x="835" d="M80 379v389q0 158 110.5 267.5t268.5 109.5h350q27 0 27 -27q0 -26 -27 -26h-350q-135 0 -230.5 -94.5t-95.5 -229.5v-389q0 -135 95.5 -230.5t230.5 -95.5h350q27 0 27 -26q0 -27 -27 -27h-350q-160 0 -269.5 109.5t-109.5 269.5zM182 379v389q0 115 81 194.5t196 79.5 h350q27 0 27 -26q0 -27 -27 -27h-350q-92 0 -157.5 -64.5t-65.5 -156.5v-389q0 -92 65.5 -157.5t157.5 -65.5h350q27 0 27 -27t-27 -27h-350q-115 0 -196 81t-81 196zM285 379v389q0 72 51 122t123 50h350q27 0 27 -27t-27 -26h-350q-51 0 -86 -34t-35 -85v-63h471 q27 0 27 -27t-27 -27h-471v-49h471q27 0 27 -27t-27 -26h-471v-49h471q27 0 27 -27t-27 -27h-471v-67q0 -51 35 -86t86 -35h350q27 0 27 -27q0 -26 -25 -26h-2h-350q-72 0 -123 51t-51 123z" />
<glyph unicode="F" horiz-adv-x="835" d="M80 27v741q0 158 110.5 267.5t268.5 109.5h350q27 0 27 -27q0 -26 -27 -26h-350q-135 0 -230.5 -94.5t-95.5 -229.5v-741q0 -27 -27 -27t-26 27zM182 27v741q0 115 81 194.5t196 79.5h350q27 0 27 -26q0 -27 -27 -27h-350q-92 0 -157.5 -64.5t-65.5 -156.5v-741 q0 -27 -27 -27t-27 27zM285 27v741q0 72 51 122t123 50h350q27 0 27 -27t-27 -26h-350q-51 0 -86 -34t-35 -85v-63h471q27 0 27 -27t-27 -27h-471v-49h471q27 0 27 -27t-27 -26h-471v-49h471q27 0 27 -27t-27 -27h-471v-419q0 -27 -27 -27t-26 27z" />
<glyph unicode="G" horiz-adv-x="835" d="M80 379v389q0 158 110.5 267.5t268.5 109.5t267.5 -109.5t109.5 -267.5q0 -29 -27 -29t-27 29q0 133 -95 228.5t-228 95.5q-135 0 -230.5 -94.5t-95.5 -229.5v-389q0 -135 95.5 -230.5t230.5 -95.5h323v522q0 27 27 27t27 -27v-548q0 -27 -27 -27h-350 q-160 0 -269.5 109.5t-109.5 269.5zM182 379v389q0 115 81 194.5t196 79.5q113 0 193.5 -80.5t80.5 -193.5q0 -29 -26 -29q-27 0 -27 29q0 90 -65.5 155.5t-155.5 65.5q-92 0 -157.5 -64.5t-65.5 -156.5v-389q0 -92 65.5 -157.5t157.5 -65.5h221v419q0 27 27 27t26 -27v-446 q0 -27 -26 -27h-248q-115 0 -196 81t-81 196zM285 379v389q0 72 51 122t123 50q70 0 121 -51t51 -121q0 -29 -27 -29q-26 0 -26 29q0 49 -35 84t-84 35q-51 0 -86 -34t-35 -85v-389q0 -51 35 -86t86 -35h119v317q0 27 26 27q27 0 27 -27v-344q0 -26 -25 -26h-2h-145 q-72 0 -123 51t-51 123z" />
<glyph unicode="H" horiz-adv-x="835" d="M80 29v1091q0 27 26 27q27 0 27 -27v-1091q0 -27 -27 -27q-26 0 -26 27zM182 29v1091q0 27 27 27t27 -27v-1091q0 -27 -27 -27t-27 27zM285 29v1091q0 27 26 27q27 0 27 -27v-473h240v473q0 27 26 27q27 0 27 -27v-1091q0 -27 -27 -27t-26 27v360h-240v-360 q0 -27 -27 -27t-26 27zM338 442h240v50h-240v-50zM338 545h240v49h-240v-49zM680 29v1091q0 27 27 27q26 0 26 -27v-1091q0 -27 -26 -27q-27 0 -27 27zM782 29v1091q0 27 27 27t27 -27v-1091q0 -27 -27 -27t-27 27z" />
<glyph unicode="I" horiz-adv-x="337" d="M80 29v1091q0 27 26 27q27 0 27 -27v-1091q0 -27 -27 -27q-26 0 -26 27zM182 29v1091q0 27 27 27t27 -27v-1091q0 -27 -27 -27t-27 27zM285 29v1091q0 27 26 27q27 0 27 -27v-1091q0 -27 -27 -27q-26 0 -26 27z" />
<glyph unicode="J" horiz-adv-x="833" d="M78 0q-1 27 26 27h351q135 0 230 95t95 230v740q0 26 25 26h2q27 0 27 -26v-740q0 -160 -110 -269.5t-269 -109.5h-351q-27 0 -26 27zM78 102q0 27 26 27h351q92 0 157.5 65.5t65.5 157.5v740q0 26 25 26h2h2q24 0 24 -26v-740q0 -115 -81 -195.5t-195 -80.5h-351 q-27 0 -26 26zM104 231h351q51 0 85.5 35t34.5 86v508h-266q-27 0 -26 27q0 27 26 26h266v50h-266q-27 0 -26 26q-1 27 26 27h266v49h-266q-27 0 -26 27q0 26 24 26h2h293q27 0 27 -26v-740q0 -72 -51.5 -123t-122.5 -51h-351q-26 0 -26 25q0 29 26 28z" />
<glyph unicode="K" d="M80 27v1091q0 27 26 27q27 0 27 -27v-1091q0 -27 -27 -27t-26 27zM182 27v1091q0 27 27 27t27 -27v-1091q0 -27 -27 -27t-27 27zM285 27v1091q0 27 26 27q27 0 27 -27v-413h121q51 0 85 34.5t34 85.5v293q0 27 26 27q27 0 27 -27v-293q0 -72 -50.5 -123t-121.5 -51h-121 v-49h121q92 0 156.5 65.5t64.5 157.5v293q0 27 27 27t26 -27v-293q0 -115 -80 -195.5t-194 -80.5h-121v-49h121q135 0 229 95t94 230v293q0 27 27 27t27 -27v-293q0 -143 -95 -250q94 -106 95 -247v-301q0 -27 -27 -27t-27 27v301q0 119 -77 211q-18 -16 -39 -31 q68 -78 67 -180v-301q0 -27 -26 -27q-27 0 -27 27v301q0 90 -64 153q-25 -12 -51 -18q66 -53 66 -135v-301q0 -27 -27 -27q-26 0 -26 27v301q0 49 -35 83.5t-84 34.5h-121v-419q0 -27 -27 -27t-26 27z" />
<glyph unicode="L" horiz-adv-x="692" d="M80 379v739q0 27 26 27q27 0 27 -27v-739q0 -135 95.5 -230.5t230.5 -95.5h207q27 0 26 -26q1 -27 -26 -27h-207q-160 0 -269.5 109.5t-109.5 269.5zM182 379v739q0 27 27 27t27 -27v-739q0 -92 65.5 -157.5t157.5 -65.5h207q26 0 26 -25q0 -29 -26 -29h-207 q-115 0 -196 81t-81 196zM285 379v739q0 27 26 27q27 0 27 -27v-739q0 -51 35 -86t86 -35h207q27 0 26 -27q1 -26 -26 -26h-207q-72 0 -123 51t-51 123z" />
<glyph unicode="M" horiz-adv-x="1224" d="M80 27v741q0 158 110.5 267.5t268.5 109.5h389q158 0 267.5 -109.5t109.5 -267.5v-741q0 -27 -27 -27t-27 27v741q0 133 -95 228.5t-228 95.5h-389q-135 0 -230.5 -94.5t-95.5 -229.5v-741q0 -27 -27 -27t-26 27zM182 27v741q0 115 81 194.5t196 79.5h389 q113 0 193.5 -80.5t80.5 -193.5v-741q0 -27 -26 -27q-27 0 -27 27v741q0 90 -65.5 155.5t-155.5 65.5h-389q-92 0 -157.5 -64.5t-65.5 -156.5v-741q0 -27 -27 -27t-27 27zM285 27v741q0 72 51 122t123 50h389q70 0 121 -51t51 -121v-741q0 -27 -27 -27t-26 27v741 q0 49 -35 84t-84 35h-64v-860q0 -27 -26 -27q-27 0 -27 27v860h-49v-860q0 -27 -27 -27t-26 27v860h-49v-860q0 -27 -27 -27t-27 27v860h-67q-51 0 -86 -34t-35 -85v-741q0 -27 -27 -27t-26 27z" />
<glyph unicode="N" horiz-adv-x="835" d="M80 27v741q0 158 110.5 267.5t268.5 109.5t267.5 -109.5t109.5 -267.5v-741q0 -27 -27 -27t-27 27v741q0 133 -95 228.5t-228 95.5q-135 0 -230.5 -94.5t-95.5 -229.5v-741q0 -27 -27 -27t-26 27zM182 27v741q0 115 81 194.5t196 79.5q113 0 193.5 -80.5t80.5 -193.5 v-741q0 -27 -26 -27q-27 0 -27 27v741q0 90 -65.5 155.5t-155.5 65.5q-92 0 -157.5 -64.5t-65.5 -156.5v-741q0 -27 -27 -27t-27 27zM285 27v741q0 72 51 122t123 50q70 0 121 -51t51 -121v-741q0 -27 -27 -27q-26 0 -26 27v741q0 49 -35 84t-84 35q-51 0 -86 -34t-35 -85 v-741q0 -27 -27 -27t-26 27z" />
<glyph unicode="O" horiz-adv-x="835" d="M80 379v389q0 158 110.5 267.5t268.5 109.5t267.5 -109.5t109.5 -267.5v-389q0 -158 -110 -268.5t-267 -110.5q-160 0 -269.5 109.5t-109.5 269.5zM133 379q0 -135 95.5 -230.5t230.5 -95.5t229 95.5t94 230.5v389q0 133 -95 228.5t-228 95.5q-135 0 -230.5 -94.5 t-95.5 -229.5v-389zM182 379v389q0 115 81 194.5t196 79.5q113 0 193.5 -80.5t80.5 -193.5v-389q0 -115 -80 -196t-194 -81q-115 0 -196 81t-81 196zM236 379q0 -92 65.5 -157.5t157.5 -65.5t156.5 65.5t64.5 157.5v389q0 90 -65.5 155.5t-155.5 65.5q-92 0 -157.5 -64.5 t-65.5 -156.5v-389zM285 379v389q0 72 51 122t123 50q70 0 121 -51t51 -121v-389q0 -72 -50.5 -123t-121.5 -51q-72 0 -123 51t-51 123zM338 379q0 -51 35 -86t86 -35t85 35t34 86v389q0 49 -35 84t-84 35q-51 0 -86 -34t-35 -85v-389z" />
<glyph unicode="P" d="M80 27v741q0 158 110.5 267.5t268.5 109.5t267.5 -109.5t109.5 -267.5t-110 -268.5t-267 -110.5h-121v-362q0 -27 -27 -27t-26 27v741q0 74 50 123t124 49q70 0 121 -51t51 -121q0 -72 -50.5 -123t-121.5 -51h-121v-49h121q92 0 156.5 65.5t64.5 157.5q0 90 -65.5 155.5 t-155.5 65.5q-92 0 -157.5 -64.5t-65.5 -156.5v-741q0 -27 -27 -27t-27 27v741q0 115 81 194.5t196 79.5q113 0 193.5 -80.5t80.5 -193.5q0 -115 -80 -195.5t-194 -80.5h-121v-50h121q135 0 229 95.5t94 230.5q0 133 -95 228.5t-228 95.5q-135 0 -230.5 -94.5t-95.5 -229.5 v-741q0 -27 -27 -27t-26 27zM338 647h121q51 0 85 35t34 86q0 49 -35 84t-84 35q-51 0 -86 -34t-35 -85v-121z" />
<glyph unicode="Q" horiz-adv-x="835" d="M80 379v389q0 158 110.5 267.5t268.5 109.5t267.5 -109.5t109.5 -267.5v-389q0 -121 -69 -217t-181 -139q-2 -158 -111.5 -266.5t-265.5 -108.5q-27 0 -27 26q0 27 27 27q135 0 230.5 95t95.5 231v247q0 2 21.5 37t21.5 68v389q0 49 -35 84t-84 35q-51 0 -86 -34t-35 -85 v-389q0 -33 22.5 -69t22.5 -38v-245q0 -72 -51 -123t-123 -51q-27 0 -27 26q0 27 27 27q49 0 84 33.5t35 83.5q-113 43 -180.5 140t-67.5 216zM133 379q0 -98 53.5 -178t143.5 -121v55q-147 76 -148 244v389q0 115 81 194.5t196 79.5q113 0 193.5 -80.5t80.5 -193.5v-389 q0 -166 -145 -244v-55q90 41 142 121t52 178v389q0 133 -95 228.5t-228 95.5q-135 0 -230.5 -94.5t-95.5 -229.5v-389zM182 -223q0 27 27 26q92 0 157.5 65.5t65.5 158.5v204q0 27 27 27q26 0 26 -27v-204q0 -115 -80.5 -196t-195.5 -81q-27 0 -27 27zM236 379 q0 -116 94 -182v65q-45 49 -45 117v389q0 72 51 122t123 50q70 0 121 -51t51 -121v-389q0 -66 -43 -115v-67q92 68 92 182v389q0 90 -65.5 155.5t-155.5 65.5q-92 0 -157.5 -64.5t-65.5 -156.5v-389z" />
<glyph unicode="R" horiz-adv-x="833" d="M80 27v741q0 158 110.5 267.5t268.5 109.5t267.5 -109.5t109.5 -267.5q0 -143 -95 -250q94 -106 95 -248v-243q0 -27 -27 -27t-27 27v243q0 119 -77 211q-18 -16 -39 -30q68 -78 67 -181v-243q0 -27 -26 -27q-27 0 -27 27v243q0 90 -64 154q-25 -12 -51 -18 q66 -53 66 -136v-243q0 -27 -27 -27q-26 0 -26 27v243q0 49 -35 84t-84 35h-121v-362q0 -27 -27 -27t-26 27v741q0 74 50 123t124 49q70 0 121 -51t51 -121q0 -72 -50.5 -123t-121.5 -51h-121v-49h121q92 0 156.5 65.5t64.5 157.5q0 90 -65.5 155.5t-155.5 65.5 q-92 0 -157.5 -64.5t-65.5 -156.5v-741q0 -27 -27 -27t-27 27v741q0 115 81 194.5t196 79.5q113 0 193.5 -80.5t80.5 -193.5q0 -115 -80 -195.5t-194 -80.5h-121v-50h121q135 0 229 95.5t94 230.5q0 133 -95 228.5t-228 95.5q-135 0 -230.5 -94.5t-95.5 -229.5v-741 q0 -27 -27 -27t-26 27zM338 647h121q51 0 85 35t34 86q0 49 -35 84t-84 35q-51 0 -86 -34t-35 -85v-121z" />
<glyph unicode="S" d="M80 379q0 27 26 27q27 0 27 -27q0 -135 95.5 -230.5t230.5 -95.5t229 95.5t94 230.5v272h-471q-27 0 -26 27v90q0 72 51 122t123 50q70 0 121 -51t51 -121q0 -29 -27 -29q-26 0 -26 29q0 49 -35 84t-84 35q-51 0 -86 -34t-35 -85v-63h471q27 0 27 -27v-299 q0 -158 -110 -268.5t-267 -110.5q-160 0 -269.5 109.5t-109.5 269.5zM80 473v295q0 158 110.5 267.5t268.5 109.5t267.5 -109.5t109.5 -267.5q0 -29 -27 -29t-27 29q0 133 -95 228.5t-228 95.5q-135 0 -230.5 -94.5t-95.5 -229.5v-268h471q27 0 27 -27v-94q0 -72 -50.5 -123 t-121.5 -51q-72 0 -123 51t-51 123q0 27 26 27q27 0 27 -27q0 -51 35 -86t86 -35t85 35t34 86v67h-472q-27 0 -26 27zM182 379q0 27 27 27t27 -27q0 -92 65.5 -157.5t157.5 -65.5t156.5 65.5t64.5 157.5v170h-471q-27 0 -27 26v193q0 115 81 194.5t196 79.5 q113 0 193.5 -80.5t80.5 -193.5q0 -29 -26 -29q-27 0 -27 29q0 90 -65.5 155.5t-155.5 65.5q-92 0 -157.5 -64.5t-65.5 -156.5v-166h471q27 0 26 -27v-196q0 -115 -80 -196t-194 -81q-115 0 -196 81t-81 196z" />
<glyph unicode="T" horiz-adv-x="833" d="M80 913q0 27 26 27h703q27 0 27 -27t-27 -26h-221v-860q0 -27 -27 -27t-26 27v860h-50v-860q0 -27 -26 -27q-27 0 -27 27v860h-49v-860q0 -27 -27 -27t-26 27v860h-224q-27 0 -26 26zM106 1042h703q27 0 27 -26q0 -27 -27 -27h-703q-26 0 -26 25q0 29 26 28zM80 1118 q-1 27 26 27h703q27 0 27 -27q0 -26 -25 -26h-2h-703q-27 0 -26 26z" />
<glyph unicode="U" d="M80 379v739q0 27 26 27q27 0 27 -27v-739q0 -135 95.5 -230.5t230.5 -95.5h323v1065q0 27 27 27t27 -27v-1091q0 -27 -27 -27h-350q-160 0 -269.5 109.5t-109.5 269.5zM182 379v739q0 27 27 27t27 -27v-739q0 -92 65.5 -157.5t157.5 -65.5h221v962q0 27 27 27 q26 0 26 -27v-989q0 -27 -26 -27h-248q-115 0 -196 81t-81 196zM285 379v739q0 27 26 27q27 0 27 -27v-739q0 -51 35 -86t86 -35h119v860q0 27 26 27q27 0 27 -27v-887q0 -26 -25 -26h-2h-145q-72 0 -123 51t-51 123z" />
<glyph unicode="V" d="M80 379v739q0 27 26 27q27 0 27 -27v-739q0 -135 95.5 -230.5t230.5 -95.5t229 95.5t94 230.5v739q0 27 27 27t27 -27v-739q0 -158 -110 -268.5t-267 -110.5q-160 0 -269.5 109.5t-109.5 269.5zM182 379v739q0 27 27 27t27 -27v-739q0 -92 65.5 -157.5t157.5 -65.5 t156.5 65.5t64.5 157.5v739q0 27 27 27t26 -27v-739q0 -115 -80 -196t-194 -81q-115 0 -196 81t-81 196zM285 379v739q0 27 26 27q27 0 27 -27v-739q0 -51 35 -86t86 -35t85 35t34 86v739q0 27 26 27q27 0 27 -27v-739q0 -72 -50.5 -123t-121.5 -51q-72 0 -123 51t-51 123z " />
<glyph unicode="W" horiz-adv-x="1224" d="M80 379v741q0 25 26 25q27 0 27 -25v-741q0 -135 95.5 -230.5t230.5 -95.5h389q135 0 229 95.5t94 230.5v741q0 25 27 25t27 -25v-741q0 -158 -109.5 -268.5t-267.5 -110.5h-389q-160 0 -269.5 109.5t-109.5 269.5zM182 379v741q0 25 27 25t27 -25v-741 q0 -92 65.5 -157.5t157.5 -65.5h389q92 0 156.5 65.5t64.5 157.5v741q0 25 27 25q26 0 26 -25v-741q0 -115 -79.5 -196t-194.5 -81h-389q-115 0 -196 81t-81 196zM285 379v741q0 25 26 25q27 0 27 -25v-741q0 -51 35 -86t86 -35h61v862q0 25 27 25t26 -25v-862h50v862 q0 25 26 25q27 0 27 -25v-862h49v862q0 25 27 25q26 0 26 -25v-862h70q51 0 85 35t34 86v741q0 25 26 25q27 0 27 -25v-741q0 -72 -50 -123t-122 -51h-389q-72 0 -123 51t-51 123z" />
<glyph unicode="X" d="M80 27v301q0 141 94 247q-94 106 -94 250v293q0 27 26 27q27 0 27 -27v-293q0 -135 95.5 -230t230.5 -95t229 95t94 230v293q0 27 27 27t27 -27v-293q0 -143 -95 -250q94 -106 95 -247v-301q0 -27 -27 -27t-27 27v301q0 119 -77 211q-18 -16 -39 -31q68 -78 67 -180v-301 q0 -27 -26 -27q-27 0 -27 27v301q0 90 -64 153q-25 -12 -51 -18q66 -53 66 -135v-301q0 -27 -27 -27q-26 0 -26 27v301q0 49 -35 83.5t-84 34.5q-51 0 -86 -33.5t-35 -84.5v-301q0 -27 -27 -27t-26 27v301q0 82 65 135q-27 6 -51 18q-63 -63 -63 -153v-301q0 -27 -27 -27 t-27 27v301q0 102 68 180q-20 14 -39 31q-78 -92 -78 -211v-301q0 -27 -27 -27t-26 27zM182 825v293q0 27 27 27t27 -27v-293q0 -92 65.5 -157.5t157.5 -65.5t156.5 65.5t64.5 157.5v293q0 27 27 27t26 -27v-293q0 -115 -80 -195.5t-194 -80.5q-115 0 -196 81t-81 195z M285 825v293q0 27 26 27q27 0 27 -27v-293q0 -51 35 -85.5t86 -34.5t85 34.5t34 85.5v293q0 27 26 27q27 0 27 -27v-293q0 -72 -50.5 -123t-121.5 -51q-72 0 -123 51.5t-51 122.5z" />
<glyph unicode="Y" d="M80 379q0 27 26 27q27 0 27 -27q0 -135 95.5 -230.5t230.5 -95.5t229 95.5t94 230.5v739q0 27 27 27t27 -27v-739q0 -158 -110 -268.5t-267 -110.5q-160 0 -269.5 109.5t-109.5 269.5zM80 825v293q0 27 26 27q27 0 27 -27v-293q0 -135 95.5 -230t230.5 -95q61 0 119 22 v53q-55 -26 -115 -26h-4q-115 0 -196 81t-81 195v293q0 27 27 27t27 -27v-293q0 -92 65.5 -157.5t157.5 -65.5q63 0 119 35v63q-51 -49 -119 -49q-72 0 -123 51.5t-51 122.5v293q0 27 26 27q27 0 27 -27v-293q0 -51 35 -85.5t86 -34.5t85 34.5t34 85.5v293q0 27 26 27 q27 0 27 -27v-739q0 -72 -50.5 -123t-121.5 -51q-72 0 -123 51t-51 123q0 27 26 27q27 0 27 -27q0 -51 35 -86t86 -35t85 35t34 86v86q-57 -18 -119 -19q-160 0 -269.5 110t-109.5 269zM182 379q0 27 27 27t27 -27q0 -92 65.5 -157.5t157.5 -65.5t156.5 65.5t64.5 157.5v739 q0 27 27 27t26 -27v-739q0 -115 -80 -196t-194 -81q-115 0 -196 81t-81 196z" />
<glyph unicode="Z" d="M80 379v299q0 27 26 27h472v63q0 49 -35 84t-84 35h-353q-27 0 -26 26q-1 27 26 27h353q70 0 121 -51t51 -121v-90q0 -27 -27 -27h-471v-272q0 -135 95.5 -230.5t230.5 -95.5h350q27 0 27 -26q0 -27 -27 -27h-350q-160 0 -269.5 109.5t-109.5 269.5zM80 1016q-1 26 26 26 h353q113 0 193.5 -80.5t80.5 -193.5v-193q0 -27 -26 -26h-471v-170q0 -92 65.5 -157.5t157.5 -65.5h350q27 0 27 -27t-27 -27h-350q-115 0 -196 81t-81 196v196q0 27 27 27h471v166q0 90 -65.5 155.5t-155.5 65.5h-353q-27 0 -26 27zM80 1118q-1 27 26 27h353 q158 0 267.5 -109.5t109.5 -267.5v-295q0 -27 -27 -27h-471v-67q0 -51 35 -86t86 -35h350q27 0 27 -27q0 -26 -25 -26h-2h-350q-72 0 -123 51t-51 123v94q0 27 26 27h471v268q0 133 -95 228.5t-228 95.5h-353q-27 0 -26 26z" />
<glyph unicode="[" horiz-adv-x="569" d="M80 174v799q0 158 110.5 267.5t268.5 109.5h84q27 0 26 -27q1 -27 -26 -27h-84q-135 0 -230.5 -94t-95.5 -229v-799q0 -135 95.5 -230.5t230.5 -95.5h84q27 0 26 -26q0 -27 -26 -27h-84q-160 0 -269.5 109.5t-109.5 269.5zM182 174v799q0 115 81 194.5t196 79.5h84 q27 0 26 -26q0 -27 -26 -27h-84q-92 0 -157.5 -64.5t-65.5 -156.5v-799q0 -92 65.5 -157.5t157.5 -65.5h84q27 0 26 -27q1 -26 -26 -26h-84q-115 0 -196 80.5t-81 195.5zM285 174v799q0 72 51 122t123 50h84q27 0 26 -27q1 -26 -26 -26h-84q-51 0 -86 -34t-35 -85v-799 q0 -51 35 -86t86 -35h84q27 0 26 -26q0 -27 -26 -27h-84q-72 0 -123 51t-51 123z" />
<glyph unicode="\" horiz-adv-x="634" d="M80 1112l295 -1092q6 -20 26 -20q35 0 27 33l-295 1091q-6 20 -27 21q-35 0 -26 -33zM182 1112l295 -1092q6 -20 27 -20q34 0 26 33l-294 1091q-6 20 -27 21q-35 0 -27 -33zM285 1112l295 -1092q6 -20 26 -20q35 0 27 33l-295 1091q-6 20 -27 21q-35 0 -26 -33z" />
<glyph unicode="]" horiz-adv-x="569" d="M80 27q0 -27 26 -27h87q72 0 122 51t50 123v799q0 70 -51.5 121t-120.5 51h-87q-27 0 -26 -27q-1 -26 26 -26h87q49 0 83.5 -35t34.5 -84v-799q0 -51 -33.5 -86t-84.5 -35h-87q-27 0 -26 -26zM80 -76q-1 -26 26 -26h87q115 0 194.5 80.5t79.5 195.5v799q0 113 -81 193.5 t-193 80.5h-87q-27 0 -26 -26q0 -27 26 -27h87q90 0 155.5 -65.5t65.5 -155.5v-799q0 -92 -64.5 -157.5t-156.5 -65.5h-87q-27 0 -26 -27zM80 -178q0 -27 26 -27h87q158 0 267 110.5t109 268.5v799q0 158 -109.5 267.5t-266.5 109.5h-87q-27 0 -26 -27q-1 -27 26 -27h87 q133 0 228 -95t95 -228v-799q0 -135 -94 -230.5t-229 -95.5h-87q-27 0 -26 -26z" />
<glyph unicode="^" horiz-adv-x="1292" d="M78 705q0 14 26 20l369 80l189 325q10 16 24 17q12 0 23 -17l190 -325l367 -80q27 -6 26 -20q0 -8 -12 -23l-250 -281l37 -374q2 -18 -9 -27.5t-28 -1.5l-344 154l-346 -154q-16 -8 -27.5 1t-9.5 28l39 374l-252 281q-12 14 -12 23zM160 684l229 -256q8 -8 6 -20 l-35 -342l314 139q12 4 22 0l314 -139l-35 342q0 10 8 20l227 256l-336 72q-10 2 -16 12l-172 297l-174 -297q-4 -10 -16 -12zM270 643q0 14 27 21l242 51l123 213q12 20 22 20q12 0 25 -20l122 -213l242 -51q27 -6 27 -21q0 -10 -13 -25l-163 -182l24 -246q2 -18 -10 -26 q-10 -8 -27 0l-225 98l-225 -98q-18 -8 -29 0q-10 8 -10 26l27 246l-166 182q-12 12 -13 25zM354 621l142 -158q8 -10 6 -21l-21 -211l193 84q12 6 22 0l195 -84l-23 211q1 13 9 21l141 158l-209 45q-10 2 -16 12l-107 184l-106 -184q-6 -10 -19 -12zM467 580q0 12 33 22 q18 4 104 23q66 117 84 116q11 0 21 -16l57 -100q100 -23 104 -23q33 -10 33 -22t-86 -109q10 -106 10 -115q0 -31 -18 -30q-12 0 -123 49q-113 -49 -125 -49q-18 0 -18 30q0 8 12 115q-88 96 -88 109zM547 557q61 -68 61 -86q-2 -8 -8 -76q78 35 86 35t84 -35l-8 76 q0 18 61 86q-78 18 -88 24t-49 76q-41 -70 -50 -76t-89 -24z" />
<glyph unicode="_" horiz-adv-x="1024" d="M82 27q0 27 27 26h886q27 0 27 -26q0 -27 -27 -27h-886q-27 0 -27 27zM82 129q0 27 27 27h886q27 0 27 -27t-27 -27h-886q-27 0 -27 27zM82 231q0 27 27 27h886q27 0 27 -27q0 -26 -27 -26h-886q-27 0 -27 26z" />
<glyph unicode="`" horiz-adv-x="1083" d="M80 690q0 14 26 21l285 61l146 252q12 20 22 20q12 0 25 -20l145 -252l285 -61q27 -6 26 -21q0 -8 -12 -22l-194 -217l30 -289q2 -18 -10 -27q-10 -8 -27 0l-266 117l-266 -117q-18 -8 -29 0q-12 8 -10 27l31 289l-195 217q-12 14 -12 22zM162 670l172 -193q8 -8 6 -20 l-27 -256l236 104q12 4 22 0l236 -104l-27 256q-2 12 6 20l172 193l-251 53q-10 2 -17 12l-129 223l-131 -223q-6 -10 -16 -12zM276 627q0 16 44.5 26.5t136.5 28.5q20 39 65 117q23 39 39 39q14 0 37 -39q14 -27 66 -117l137 -29q43 -10 43 -26q0 -13 -117 -142l16 -155 q0 -33 -18 -33q-12 0 -164 65q-154 -66 -166 -65q-18 0 -18 33l16 155q-117 129 -117 142zM356 606l84 -94q8 -8 6 -20l-12 -125l115 51q12 4 22 0l115 -51l-12 125q-2 12 6 20l84 94l-123 27q-12 2 -16 12l-64 109l-65 -109q-4 -10 -17 -12zM471 565q0 16 23 21l28 6 q25 43 41 43q10 0 21 -19l14 -24q53 -12 53 -29q0 -8 -10 -20l-20 -23q6 -61 -17 -61q-8 0 -16 4l-27 12l-29 -12q-10 -4 -16 -4q-23 0 -16 61q-29 31 -29 45zM549 543q2 -6 4 -15q6 2 14 0q2 9 4 15q-6 4 -10 10q-6 -6 -12 -10z" />
<glyph unicode="a" d="M80 379q0 158 110.5 267.5t268.5 109.5h119v12q0 49 -35 84t-84 35h-230q-27 0 -26 26q0 27 26 27h230q70 0 121 -51t51 -121v-537q0 -27 -27 -26h-145q-72 0 -123 51t-51 123q0 74 50 123t124 49h119v49h-119q-92 0 -157.5 -64.5t-65.5 -156.5t65.5 -157.5t157.5 -65.5 h221v612q0 90 -65.5 155.5t-155.5 65.5h-230q-27 0 -26 27q0 27 26 26h230q113 0 193.5 -80.5t80.5 -193.5v-639q0 -27 -26 -27h-248q-115 0 -196 81t-81 196t81 194.5t196 79.5h119v49h-119q-135 0 -230.5 -94t-95.5 -229t95.5 -230.5t230.5 -95.5h323v715q0 133 -95 228.5 t-228 95.5h-230q-27 0 -26 26q0 27 26 27h230q158 0 267.5 -109.5t109.5 -267.5v-741q0 -27 -27 -27h-350q-160 0 -269.5 109.5t-109.5 269.5zM338 379q0 -51 35 -86t86 -35h119v240h-119q-51 0 -86 -34t-35 -85z" />
<glyph unicode="b" d="M80 379q0 -160 109.5 -269.5t269.5 -109.5q158 0 267.5 110.5t109.5 268.5v178q0 158 -110 267.5t-267 109.5h-121v184q0 27 -27 27t-26 -27v-739q0 -74 50 -124t124 -50q72 0 122 51t50 123v178q0 70 -51 121t-121 51h-121v49h121q90 0 155.5 -65.5t65.5 -155.5v-178 q0 -92 -64.5 -157.5t-156.5 -65.5t-157.5 65.5t-65.5 157.5v739q0 27 -27 27t-27 -27v-739q0 -115 81 -196t196 -81t194.5 81t79.5 196v178q0 113 -81 193.5t-193 80.5h-121v50h121q133 0 228 -95.5t95 -228.5v-178q0 -135 -94 -230.5t-229 -95.5t-230.5 95.5t-95.5 230.5 v739q0 27 -27 27t-26 -27v-739zM338 379v297h121q49 0 84 -35t35 -84v-178q0 -51 -34 -86t-85 -35t-86 35t-35 86z" />
<glyph unicode="c" d="M80 379v389q0 158 110.5 267.5t268.5 109.5t267.5 -109.5t109.5 -267.5q0 -29 -27 -29t-27 29q0 133 -95 228.5t-228 95.5q-135 0 -230.5 -94.5t-95.5 -229.5v-389q0 -135 95.5 -230.5t230.5 -95.5t229 95.5t94 230.5q0 27 27 27t27 -27q0 -158 -110 -268.5t-267 -110.5 q-160 0 -269.5 109.5t-109.5 269.5zM182 379v389q0 115 81 194.5t196 79.5q113 0 193.5 -80.5t80.5 -193.5q0 -29 -26 -29q-27 0 -27 29q0 90 -65.5 155.5t-155.5 65.5q-92 0 -157.5 -64.5t-65.5 -156.5v-389q0 -92 65.5 -157.5t157.5 -65.5t156.5 65.5t64.5 157.5 q0 27 27 27t26 -27q0 -115 -80 -196t-194 -81q-115 0 -196 81t-81 196zM285 379v389q0 72 51 122t123 50q70 0 121 -51t51 -121q0 -29 -27 -29q-26 0 -26 29q0 49 -35 84t-84 35q-51 0 -86 -34t-35 -85v-389q0 -51 35 -86t86 -35t85 35t34 86q0 27 26 27q27 0 27 -27 q0 -72 -50.5 -123t-121.5 -51q-72 0 -123 51t-51 123z" />
<glyph unicode="d" d="M80 379v178q0 158 110.5 267.5t268.5 109.5h119v184q0 27 26 27q27 0 27 -27v-739q0 -74 -49.5 -124t-122.5 -50q-74 0 -124 50t-50 124v178q0 72 51 122t123 50h119v49h-119q-92 0 -157.5 -64.5t-65.5 -156.5v-178q0 -92 65.5 -157.5t157.5 -65.5t156.5 65.5t64.5 157.5 v739q0 27 27 27t26 -27v-739q0 -115 -80 -196t-194 -81q-115 0 -196 81t-81 196v178q0 115 81 194.5t196 79.5h119v50h-119q-135 0 -230.5 -94.5t-95.5 -229.5v-178q0 -135 95.5 -230.5t230.5 -95.5t229 95.5t94 230.5v739q0 27 27 27t27 -27v-739q0 -158 -110 -268.5 t-267 -110.5q-160 0 -269.5 109.5t-109.5 269.5zM338 379q0 -51 35 -86t86 -35t85 35t34 86v297h-119q-51 0 -86 -34t-35 -85v-178z" />
<glyph unicode="e" d="M80 379v389q0 158 110.5 267.5t268.5 109.5t267.5 -109.5t109.5 -267.5v-90q0 -158 -110 -268.5t-267 -110.5h-92q37 -41 92 -41h350q27 0 27 -27t-27 -26h-350q-72 0 -123 51t-51 123v389q0 72 51 122t123 50q70 0 121 -51t51 -121v-90q0 -72 -50.5 -123t-121.5 -51 h-121v-49h121q92 0 156.5 65.5t64.5 157.5v90q0 90 -65.5 155.5t-155.5 65.5q-92 0 -157.5 -64.5t-65.5 -156.5v-389q0 -92 65.5 -157.5t157.5 -65.5h350q27 0 27 -27t-27 -27h-350q-115 0 -196 81t-81 196v389q0 115 81 194.5t196 79.5q113 0 193.5 -80.5t80.5 -193.5v-90 q0 -115 -80 -196t-194 -81h-121v-22q0 -14 2 -27h119q135 0 229 95.5t94 230.5v90q0 133 -95 228.5t-228 95.5q-135 0 -230.5 -94.5t-95.5 -229.5v-389q0 -135 95.5 -230.5t230.5 -95.5h350q27 0 27 -26q0 -27 -27 -27h-350q-160 0 -269.5 109.5t-109.5 269.5zM338 557h121 q51 0 85 35t34 86v90q0 49 -35 84t-84 35q-51 0 -86 -34t-35 -85v-211z" />
<glyph unicode="f" d="M80 27v741q0 158 110.5 267.5t268.5 109.5q156 0 265.5 -109.5t111.5 -267.5l2 -133q0 -27 -27 -27t-27 27l-2 133q-2 135 -96 229.5t-227 94.5q-135 0 -230.5 -94.5t-95.5 -229.5v-741q0 -27 -27 -27t-26 27zM182 27v741q0 115 81 194.5t196 79.5q113 0 192.5 -80.5 t81.5 -193.5l2 -133q0 -27 -26 -27q-27 0 -27 27l-2 133q-2 92 -65.5 156.5t-155.5 64.5t-157.5 -64.5t-65.5 -156.5v-741q0 -27 -27 -27t-27 27zM285 27v741q0 72 51 122t123 50q70 0 120 -50t52 -122l2 -133q0 -27 -27 -27t-26 27l-2 133q0 49 -35 84t-84 35 q-51 0 -86 -35t-35 -84l2 -215h471q27 0 27 -27t-27 -26h-471v-49h471q27 0 27 -27t-27 -27h-471v-49h471q27 0 27 -26q0 -27 -27 -27h-471l-2 -268q0 -27 -27 -27t-26 27z" />
<glyph unicode="g" d="M106 53h353q135 0 229 95.5t94 230.5v713h-323q-135 0 -230.5 -94.5t-95.5 -229.5v-90q0 -135 95.5 -230.5t230.5 -95.5h116q2 12 3 27v22h-119q-115 0 -196 81t-81 196v90q0 115 81 194.5t196 79.5h248q27 0 26 -26v-637q0 -115 -80 -196t-194 -81h-353q-26 0 -26 25v2 q0 27 26 27h353q92 0 156.5 65.5t64.5 157.5v610h-221q-92 0 -157.5 -64.5t-65.5 -156.5v-90q0 -92 65.5 -157.5t157.5 -65.5h119v49h-119q-74 0 -124 50t-50 124v90q0 72 51 122t123 50h145q27 0 27 -27v-534q0 -72 -50.5 -123t-121.5 -51h-353q-27 0 -26 26q0 27 26 27 h353q53 0 90 41h-90q-160 0 -269.5 109.5t-109.5 269.5v90q0 158 110.5 267.5t268.5 109.5h350q27 0 27 -27v-739q0 -158 -110 -268.5t-267 -110.5h-353q-26 0 -26 25q0 29 26 28zM338 678q0 -51 35 -86t86 -35h119v330h-119q-51 0 -86 -34t-35 -85v-90z" />
<glyph unicode="h" d="M80 27v1091q0 27 26 27q27 0 27 -27v-1091q0 -27 -27 -27q-26 0 -26 27zM182 27v1091q0 27 27 27t27 -27v-1091q0 -27 -27 -27t-27 27zM285 27v1091q0 27 26 27q27 0 27 -27v-184h121q158 0 267.5 -109.5t109.5 -267.5v-530q0 -27 -27 -27t-27 27v530q0 133 -95 228.5 t-228 95.5h-121v-50h121q113 0 193.5 -80.5t80.5 -193.5v-530q0 -27 -26 -27q-27 0 -27 27v530q0 90 -65.5 155.5t-155.5 65.5h-121v-49h121q70 0 121 -51t51 -121v-530q0 -27 -27 -27t-26 27v530q0 49 -35 84t-84 35h-121v-649q0 -27 -27 -27q-26 0 -26 27z" />
<glyph unicode="i" horiz-adv-x="337" d="M80 27v786q0 27 26 27q27 0 27 -27v-786q0 -27 -27 -27q-26 0 -26 27zM80 913q0 27 26 27h203q27 0 27 -27q0 -26 -27 -26h-203q-27 0 -26 26zM106 1042h203q27 0 27 -26q0 -27 -27 -27h-203q-26 0 -26 25q0 29 26 28zM80 1118q0 27 26 27h203q27 0 27 -27q0 -26 -27 -26 h-203q-27 0 -26 26zM182 27v786q0 27 27 27t27 -27v-786q0 -27 -27 -27t-27 27zM285 27v786q0 27 26 27q27 0 27 -27v-786q0 -27 -27 -27q-26 0 -26 27z" />
<glyph unicode="j" d="M80 379q0 27 26 27q27 0 27 -27q0 -135 95.5 -230.5t230.5 -95.5t229 95.5t94 230.5v434q0 27 27 27t27 -27v-434q0 -158 -110 -268.5t-267 -110.5q-160 0 -269.5 109.5t-109.5 269.5zM182 379q0 27 27 27t27 -27q0 -92 65.5 -157.5t157.5 -65.5t156.5 65.5t64.5 157.5 v434q0 27 27 27q26 0 26 -27v-434q0 -115 -80 -196t-194 -81q-115 0 -196 81t-81 196zM285 379q0 27 26 27q27 0 27 -27q0 -51 35 -86t86 -35t85 35t34 86v434q0 27 26 27q27 0 27 -27v-434q0 -72 -50.5 -123t-121.5 -51q-72 0 -123 51t-51 123zM565 913q0 27 27 27h215 q27 0 27 -27q0 -26 -27 -26h-215q-27 0 -27 26zM565 1016q0 27 27 26h215q27 0 27 -26q0 -27 -27 -27h-215q-27 0 -27 27zM565 1118q0 27 27 27h215q27 0 27 -27q0 -26 -27 -26h-215q-27 0 -27 26z" />
<glyph unicode="k" d="M80 27v1091q0 27 26 27q27 0 27 -27v-1091q0 -27 -27 -27t-26 27zM182 27v1091q0 27 27 27t27 -27v-1091q0 -27 -27 -27t-27 27zM285 27v1091q0 27 26 27q27 0 27 -27v-471h121q51 0 85 35t34 86v145q0 27 26 27q27 0 27 -27v-145q0 -72 -50.5 -123t-121.5 -51h-121v-49 h121q92 0 156.5 65.5t64.5 157.5v145q0 27 27 27t26 -27v-145q0 -115 -80 -195.5t-194 -80.5h-121v-50h121q135 0 229 95.5t94 230.5v145q0 27 27 27t27 -27v-145q0 -143 -95 -250q94 -106 95 -248v-243q0 -27 -27 -27t-27 27v243q0 119 -77 211q-18 -16 -39 -30 q68 -78 67 -181v-243q0 -27 -26 -27q-27 0 -27 27v243q0 90 -64 154q-25 -12 -51 -18q66 -53 66 -136v-243q0 -27 -27 -27q-26 0 -26 27v243q0 49 -35 84t-84 35h-121v-362q0 -27 -27 -27t-26 27z" />
<glyph unicode="l" horiz-adv-x="548" d="M80 379v739q0 27 26 27q27 0 27 -27v-739q0 -135 95.5 -230.5t230.5 -95.5h63q27 0 27 -26q0 -27 -27 -27h-63q-160 0 -269.5 109.5t-109.5 269.5zM182 379v739q0 27 27 27t27 -27v-739q0 -92 65.5 -157.5t157.5 -65.5h63q27 0 27 -27t-27 -27h-63q-115 0 -196 81 t-81 196zM285 379v739q0 27 26 27q27 0 27 -27v-739q0 -51 35 -86t86 -35h63q27 0 27 -27q0 -26 -27 -26h-63q-72 0 -123 51t-51 123z" />
<glyph unicode="m" horiz-adv-x="1224" d="M80 27v741q0 158 110.5 268.5t268.5 110.5h389q158 0 267.5 -110.5t109.5 -268.5v-741q0 -27 -27 -27t-27 27v741q0 135 -94 230.5t-229 95.5h-389q-135 0 -230.5 -95.5t-95.5 -230.5v-741q0 -27 -27 -27t-26 27zM182 27v741q0 115 81 195.5t196 80.5h389 q115 0 194.5 -80.5t79.5 -195.5v-741q0 -27 -26 -27q-27 0 -27 27v741q0 92 -64.5 157.5t-156.5 65.5h-389q-92 0 -157.5 -65.5t-65.5 -157.5v-741q0 -27 -27 -27t-27 27zM285 27v741q0 72 51 123t123 51h389q72 0 122 -51t50 -123v-741q0 -27 -27 -27t-26 27v741 q0 49 -35 85t-84 36h-64v-862q0 -27 -26 -27q-27 0 -27 27v862h-49v-862q0 -27 -27 -27t-26 27v862h-49v-862q0 -27 -27 -27t-27 27v862h-67q-51 0 -86 -35t-35 -86v-741q0 -27 -27 -27t-26 27z" />
<glyph unicode="n" d="M80 27v741q0 158 110.5 267.5t268.5 109.5t267.5 -109.5t109.5 -267.5v-741q0 -27 -27 -27t-27 27v741q0 133 -95 228.5t-228 95.5q-135 0 -230.5 -94.5t-95.5 -229.5v-741q0 -27 -27 -27t-26 27zM182 27v741q0 115 81 194.5t196 79.5q113 0 193.5 -80.5t80.5 -193.5 v-741q0 -27 -26 -27q-27 0 -27 27v741q0 90 -65.5 155.5t-155.5 65.5q-92 0 -157.5 -64.5t-65.5 -156.5v-741q0 -27 -27 -27t-27 27zM285 27v741q0 72 51 122t123 50q70 0 121 -51t51 -121v-741q0 -27 -27 -27q-26 0 -26 27v741q0 49 -35 84t-84 35q-51 0 -86 -34t-35 -85 v-741q0 -27 -27 -27t-26 27z" />
<glyph unicode="o" d="M80 379v389q0 158 110.5 267.5t268.5 109.5t267.5 -109.5t109.5 -267.5v-389q0 -158 -110 -268.5t-267 -110.5q-160 0 -269.5 109.5t-109.5 269.5zM133 379q0 -135 95.5 -230.5t230.5 -95.5t229 95.5t94 230.5v389q0 133 -95 228.5t-228 95.5q-135 0 -230.5 -94.5 t-95.5 -229.5v-389zM182 379v389q0 115 81 194.5t196 79.5q113 0 193.5 -80.5t80.5 -193.5v-389q0 -115 -80 -196t-194 -81q-115 0 -196 81t-81 196zM236 379q0 -92 65.5 -157.5t157.5 -65.5t156.5 65.5t64.5 157.5v389q0 90 -65.5 155.5t-155.5 65.5q-92 0 -157.5 -64.5 t-65.5 -156.5v-389zM285 379v389q0 72 51 122t123 50q70 0 121 -51t51 -121v-389q0 -72 -50.5 -123t-121.5 -51q-72 0 -123 51t-51 123zM338 379q0 -51 35 -86t86 -35t85 35t34 86v389q0 49 -35 84t-84 35q-51 0 -86 -34t-35 -85v-389z" />
<glyph unicode="p" d="M80 27v739q0 160 109.5 269.5t269.5 109.5q158 0 267.5 -110.5t109.5 -268.5v-178q0 -158 -110 -267.5t-267 -109.5h-121v-184q0 -27 -27 -27t-26 27v739q0 74 50 124t124 50q72 0 122 -51t50 -123v-178q0 -70 -51 -121t-121 -51h-121v-49h121q90 0 155.5 65.5 t65.5 155.5v178q0 92 -64.5 157.5t-156.5 65.5t-157.5 -65.5t-65.5 -157.5v-739q0 -27 -27 -27t-27 27v739q0 115 81 195.5t196 80.5t194.5 -80.5t79.5 -195.5v-178q0 -113 -81 -194t-193 -81h-121v-49h121q133 0 228 95.5t95 228.5v178q0 135 -94 230.5t-229 95.5 t-230.5 -95.5t-95.5 -230.5v-739q0 -27 -27 -27t-26 27zM338 469h121q49 0 84 35t35 84v178q0 51 -34 86t-85 35t-86 -35t-35 -86v-297z" />
<glyph unicode="q" horiz-adv-x="833" d="M80 563v205q0 158 110.5 267.5t268.5 109.5h350q27 0 27 -27v-1091q0 -27 -27 -27t-27 27v1065h-323q-135 0 -230.5 -94.5t-95.5 -229.5v-205q0 -135 95.5 -230t230.5 -95h119v49h-119q-115 0 -196 81t-81 195v205q0 115 81 194.5t196 79.5h248q27 0 26 -26v-989 q0 -27 -26 -27q-27 0 -27 27v962h-221q-92 0 -157.5 -64.5t-65.5 -156.5v-205q0 -92 65.5 -157.5t157.5 -65.5h119v49h-119q-72 0 -123 51.5t-51 122.5v205q0 72 51 122t123 50h145q27 0 27 -27v-886q0 -27 -27 -27q-26 0 -26 27v157h-119q-160 0 -269.5 109.5t-109.5 269.5 zM338 563q0 -51 35 -86t86 -35h119v445h-119q-51 0 -86 -34t-35 -85v-205z" />
<glyph unicode="r" horiz-adv-x="630" d="M80 27q0 -27 26 -27q27 0 27 27v739q0 135 95.5 230.5t230.5 95.5h145q27 0 27 26q0 27 -27 27h-145q-160 0 -269.5 -109.5t-109.5 -269.5v-739zM182 27q0 -27 27 -27t27 27v739q0 92 65.5 157.5t157.5 65.5h145q27 0 27 27q0 26 -25 26h-2h-145q-115 0 -196 -80.5 t-81 -195.5v-739zM285 27q0 -27 26 -27q27 0 27 27v739q0 51 35 86t86 35h145q27 0 27 26q0 27 -27 27h-145q-72 0 -123 -51t-51 -123v-739z" />
<glyph unicode="s" d="M106 53h353q135 0 229 95.5t94 230.5v272h-471q-27 0 -26 27v90q0 72 51 122t123 50h350q27 0 27 -27q0 -26 -27 -26h-350q-51 0 -86 -34t-35 -85v-63h471q27 0 27 -27v-299q0 -158 -110 -268.5t-267 -110.5h-353q-26 0 -26 25q0 29 26 28zM106 156h353q92 0 156.5 65.5 t64.5 157.5v170h-471q-27 0 -27 26v193q0 115 81 194.5t196 79.5h350q27 0 27 -26q0 -27 -27 -27h-350q-92 0 -157.5 -64.5t-65.5 -156.5v-166h471q27 0 26 -27v-196q0 -115 -80 -196t-194 -81h-353q-26 0 -26 25q0 29 26 29zM80 231q0 27 26 27h353q51 0 85 35t34 86v67 h-472q-27 0 -26 27v295q0 158 110.5 267.5t268.5 109.5h350q27 0 27 -27q0 -26 -27 -26h-350q-135 0 -230.5 -94.5t-95.5 -229.5v-268h471q27 0 27 -27v-94q0 -72 -50.5 -123t-121.5 -51h-353q-27 0 -26 26z" />
<glyph unicode="t" d="M80 379v739q0 27 26 27q27 0 27 -27v-184h49v184q0 27 27 27t27 -27v-184h49v184q0 27 26 27q27 0 27 -27v-184h471q27 0 27 -27t-27 -26h-676v-502q0 -135 95.5 -230.5t230.5 -95.5t229 95.5t94 230.5v196q0 27 27 27t27 -27v-196q0 -158 -110 -268.5t-267 -110.5 q-160 0 -269.5 109.5t-109.5 269.5zM182 379v426q0 26 25 26h2h600q27 0 27 -26q0 -27 -27 -27h-573v-399q0 -92 65.5 -157.5t157.5 -65.5t156.5 65.5t64.5 157.5v196q0 27 27 27t26 -27v-196q0 -115 -80 -196t-194 -81q-115 0 -196 81t-81 196zM285 379v323q0 27 26 27h498 q27 0 27 -27q0 -26 -27 -26h-471v-297q0 -51 35 -86t86 -35t85 35t34 86v196q0 27 26 27q27 0 27 -27v-196q0 -72 -50.5 -123t-121.5 -51q-72 0 -123 51t-51 123z" />
<glyph unicode="u" d="M80 379v739q0 27 26 27q27 0 27 -27v-739q0 -135 95.5 -230.5t230.5 -95.5h323v1065q0 27 27 27t27 -27v-1091q0 -27 -27 -27h-350q-160 0 -269.5 109.5t-109.5 269.5zM182 379v739q0 27 27 27t27 -27v-739q0 -92 65.5 -157.5t157.5 -65.5h221v962q0 27 27 27 q26 0 26 -27v-989q0 -27 -26 -27h-248q-115 0 -196 81t-81 196zM285 379v739q0 27 26 27q27 0 27 -27v-739q0 -51 35 -86t86 -35h119v860q0 27 26 27q27 0 27 -27v-887q0 -26 -25 -26h-2h-145q-72 0 -123 51t-51 123z" />
<glyph unicode="v" d="M80 379v739q0 27 26 27q27 0 27 -27v-739q0 -135 95.5 -230.5t230.5 -95.5t229 95.5t94 230.5v739q0 27 27 27t27 -27v-739q0 -158 -110 -268.5t-267 -110.5q-160 0 -269.5 109.5t-109.5 269.5zM182 379v739q0 27 27 27t27 -27v-739q0 -92 65.5 -157.5t157.5 -65.5 t156.5 65.5t64.5 157.5v739q0 27 27 27t26 -27v-739q0 -115 -80 -196t-194 -81q-115 0 -196 81t-81 196zM285 379v739q0 27 26 27q27 0 27 -27v-739q0 -51 35 -86t86 -35t85 35t34 86v739q0 27 26 27q27 0 27 -27v-739q0 -72 -50.5 -123t-121.5 -51q-72 0 -123 51t-51 123z " />
<glyph unicode="w" horiz-adv-x="1224" d="M80 379v741q0 25 26 25q27 0 27 -25v-741q0 -135 95.5 -230.5t230.5 -95.5h389q135 0 229 95.5t94 230.5v741q0 25 27 25t27 -25v-741q0 -158 -109.5 -268.5t-267.5 -110.5h-389q-160 0 -269.5 109.5t-109.5 269.5zM182 379v741q0 25 27 25t27 -25v-741 q0 -92 65.5 -157.5t157.5 -65.5h389q92 0 156.5 65.5t64.5 157.5v741q0 25 27 25q26 0 26 -25v-741q0 -115 -79.5 -196t-194.5 -81h-389q-115 0 -196 81t-81 196zM285 379v741q0 25 26 25q27 0 27 -25v-741q0 -51 35 -86t86 -35h61v862q0 25 27 25t26 -25v-862h50v862 q0 25 26 25q27 0 27 -25v-862h49v862q0 25 27 25q26 0 26 -25v-862h70q51 0 85 35t34 86v741q0 25 26 25q27 0 27 -25v-741q0 -72 -50 -123t-122 -51h-389q-72 0 -123 51t-51 123z" />
<glyph unicode="x" d="M80 27v301q0 141 94 247q-94 106 -94 250v293q0 27 26 27q27 0 27 -27v-293q0 -135 95.5 -230t230.5 -95t229 95t94 230v293q0 27 27 27t27 -27v-293q0 -143 -95 -250q94 -106 95 -247v-301q0 -27 -27 -27t-27 27v301q0 119 -77 211q-18 -16 -39 -31q68 -78 67 -180v-301 q0 -27 -26 -27q-27 0 -27 27v301q0 90 -64 153q-25 -12 -51 -18q66 -53 66 -135v-301q0 -27 -27 -27q-26 0 -26 27v301q0 49 -35 83.5t-84 34.5q-51 0 -86 -33.5t-35 -84.5v-301q0 -27 -27 -27t-26 27v301q0 82 65 135q-27 6 -51 18q-63 -63 -63 -153v-301q0 -27 -27 -27 t-27 27v301q0 102 68 180q-20 14 -39 31q-78 -92 -78 -211v-301q0 -27 -27 -27t-26 27zM182 825v293q0 27 27 27t27 -27v-293q0 -92 65.5 -157.5t157.5 -65.5t156.5 65.5t64.5 157.5v293q0 27 27 27t26 -27v-293q0 -115 -80 -195.5t-194 -80.5q-115 0 -196 81t-81 195z M285 825v293q0 27 26 27q27 0 27 -27v-293q0 -51 35 -85.5t86 -34.5t85 34.5t34 85.5v293q0 27 26 27q27 0 27 -27v-293q0 -72 -50.5 -123t-121.5 -51q-72 0 -123 51.5t-51 122.5z" />
<glyph unicode="y" d="M106 53h353q135 0 229 95.5t94 230.5v739q0 27 27 27t27 -27v-739q0 -158 -110 -268.5t-267 -110.5h-353q-26 0 -26 25q0 29 26 28zM106 156h353q92 0 156.5 65.5t64.5 157.5v739q0 27 27 27q26 0 26 -27v-739q0 -115 -80 -196t-194 -81h-353q-26 0 -26 25q0 29 26 29z M80 231q0 27 26 27h353q53 0 90 41h-90q-160 0 -269.5 109.5t-109.5 269.5v440q0 27 26 27q27 0 27 -27v-440q0 -135 95.5 -230.5t230.5 -95.5h116q2 12 3 27v22h-119q-115 0 -196 81t-81 196v440q0 27 27 27t27 -27v-440q0 -92 65.5 -157.5t157.5 -65.5h119v49h-119 q-74 0 -124 50t-50 124v440q0 27 26 27q27 0 27 -27v-440q0 -51 35 -86t86 -35h119v561q0 27 26 27q27 0 27 -27v-739q0 -72 -50.5 -123t-121.5 -51h-353q-27 0 -26 26z" />
<glyph unicode="z" d="M80 379v299q0 27 26 27h472v63q0 49 -35 84t-84 35h-353q-27 0 -26 26q-1 27 26 27h353q70 0 121 -51t51 -121v-90q0 -27 -27 -27h-471v-272q0 -135 95.5 -230.5t230.5 -95.5h350q27 0 27 -26q0 -27 -27 -27h-350q-160 0 -269.5 109.5t-109.5 269.5zM80 1016q-1 26 26 26 h353q113 0 193.5 -80.5t80.5 -193.5v-193q0 -27 -26 -26h-471v-170q0 -92 65.5 -157.5t157.5 -65.5h350q27 0 27 -27t-27 -27h-350q-115 0 -196 81t-81 196v196q0 27 27 27h471v166q0 90 -65.5 155.5t-155.5 65.5h-353q-27 0 -26 27zM80 1118q-1 27 26 27h353 q158 0 267.5 -109.5t109.5 -267.5v-295q0 -27 -27 -27h-471v-67q0 -51 35 -86t86 -35h350q27 0 27 -27q0 -26 -25 -26h-2h-350q-72 0 -123 51t-51 123v94q0 27 26 27h471v268q0 133 -95 228.5t-228 95.5h-353q-27 0 -26 26z" />
<glyph unicode="{" horiz-adv-x="1968" d="M80 27q0 -27 26 -27q27 0 27 27v739q0 135 95.5 230.5t230.5 95.5t229 -95.5t94 -230.5v-197q0 -72 51.5 -123t122.5 -51q72 0 122 51.5t50 122.5v197q0 135 95.5 230.5t230.5 95.5t229.5 -95.5t94.5 -230.5v-739q0 -27 26 -27q27 0 27 27v739q0 158 -109.5 268.5 t-267.5 110.5q-160 0 -269.5 -109.5t-109.5 -269.5v-197q0 -49 -34.5 -84.5t-84.5 -35.5q-51 0 -85.5 34.5t-34.5 85.5v197q0 158 -110 268.5t-267 110.5q-160 0 -269.5 -109.5t-109.5 -269.5v-739zM182 27q0 -27 27 -27t27 27v739q0 92 65.5 157.5t157.5 65.5t156.5 -65.5 t64.5 -157.5v-197q0 -115 81 -195.5t195 -80.5q115 0 195 81t80 195v197q0 92 65.5 157.5t157.5 65.5t156.5 -65.5t64.5 -157.5v-739q0 -27 27 -27t27 27v739q0 115 -80 195.5t-195 80.5t-195.5 -80.5t-80.5 -195.5v-197q0 -92 -64.5 -157.5t-157.5 -65.5q-92 0 -157.5 65.5 t-65.5 157.5v197q0 115 -80 195.5t-194 80.5q-115 0 -196 -80.5t-81 -195.5v-739zM285 27q0 -27 26 -27q27 0 27 27v739q0 51 35 86t86 35t85 -35t34 -86v-197q0 -158 110.5 -268.5t267.5 -110.5q158 0 267.5 111t109.5 268v197q0 51 35 86t86 35t85 -35t34 -86v-739 q0 -27 26 -27q27 0 27 27v739q0 72 -50 123t-122 51t-123 -51t-51 -123v-197q0 -135 -94 -230t-230 -95q-135 0 -230 95t-95 230v197q0 72 -50.5 123t-121.5 51q-72 0 -123 -51t-51 -123v-739z" />
<glyph unicode="|" horiz-adv-x="337" d="M80 -178v1501q0 27 26 27q27 0 27 -27v-1501q0 -27 -27 -27q-26 0 -26 27zM182 -178v1501q0 27 27 27t27 -27v-1501q0 -27 -27 -27t-27 27zM285 -178v1501q0 27 26 27q27 0 27 -27v-1501q0 -27 -27 -27q-26 0 -26 27z" />
<glyph unicode="}" horiz-adv-x="1968" d="M80 379v739q0 27 26 27q27 0 27 -27v-739q0 -135 95.5 -230.5t230.5 -95.5t229 95.5t94 230.5v196q0 72 51.5 123.5t122.5 51.5q72 0 122 -51.5t50 -123.5v-196q0 -135 95.5 -230.5t230.5 -95.5t229.5 95.5t94.5 230.5v739q0 27 26 27q27 0 27 -27v-739 q0 -158 -109.5 -268.5t-267.5 -110.5q-160 0 -269.5 109.5t-109.5 269.5v196q0 49 -34.5 85t-84.5 36q-51 0 -85.5 -34.5t-34.5 -86.5v-196q0 -158 -110 -268.5t-267 -110.5q-160 0 -269.5 109.5t-109.5 269.5zM182 379v739q0 27 27 27t27 -27v-739q0 -92 65.5 -157.5 t157.5 -65.5t156.5 65.5t64.5 157.5v196q0 115 81 196t195 81q115 0 195 -81t80 -196v-196q0 -92 65.5 -157.5t157.5 -65.5t156.5 65.5t64.5 157.5v739q0 27 27 27t27 -27v-739q0 -115 -80 -196t-195 -81t-195.5 81t-80.5 196v196q0 92 -64.5 158t-157.5 66 q-92 0 -157.5 -65.5t-65.5 -158.5v-196q0 -115 -80 -196t-194 -81q-115 0 -196 81t-81 196zM285 379v739q0 27 26 27q27 0 27 -27v-739q0 -51 35 -86t86 -35t85 35t34 86v196q0 158 110.5 268.5t267.5 110.5q158 0 267.5 -110.5t109.5 -268.5v-196q0 -51 35 -86t86 -35 t85 35t34 86v739q0 27 26 27q27 0 27 -27v-739q0 -72 -50 -123t-122 -51t-123 51t-51 123v196q0 135 -94 230.5t-230 95.5q-135 0 -230 -95t-95 -231v-196q0 -72 -50.5 -123t-121.5 -51q-72 0 -123 51t-51 123z" />
<glyph unicode="~" horiz-adv-x="1292" d="M78 705q0 14 26 20l369 80l189 325q10 16 24 17q12 0 23 -17l190 -325l367 -80q27 -6 26 -20q0 -8 -12 -23l-250 -281l37 -374q2 -18 -9 -27.5t-28 -1.5l-344 154l-346 -154q-16 -8 -27.5 1t-9.5 28l39 374l-252 281q-12 14 -12 23zM160 684l229 -256q8 -8 6 -20 l-35 -342l314 139q12 4 22 0l314 -139l-35 342q0 10 8 20l227 256l-336 72q-10 2 -16 12l-172 297l-174 -297q-4 -10 -16 -12zM270 643q0 14 27 21l242 51l123 213q12 20 22 20q12 0 25 -20l122 -213l242 -51q27 -6 27 -21q0 -10 -13 -25l-163 -182l24 -246q2 -18 -10 -26 q-10 -8 -27 0l-225 98l-225 -98q-18 -8 -29 0q-10 8 -10 26l27 246l-166 182q-12 12 -13 25zM354 621l142 -158q8 -10 6 -21l-21 -211l193 84q12 6 22 0l195 -84l-23 211q1 13 9 21l141 158l-209 45q-10 2 -16 12l-107 184l-106 -184q-6 -10 -19 -12zM467 580q0 12 33 22 q18 4 104 23q66 117 84 116q11 0 21 -16l57 -100q100 -23 104 -23q33 -10 33 -22t-86 -109q10 -106 10 -115q0 -31 -18 -30q-12 0 -123 49q-113 -49 -125 -49q-18 0 -18 30q0 8 12 115q-88 96 -88 109zM547 557q61 -68 61 -86q-2 -8 -8 -76q78 35 86 35t84 -35l-8 76 q0 18 61 86q-78 18 -88 24t-49 76q-41 -70 -50 -76t-89 -24z" />
<glyph unicode="&#xad;" horiz-adv-x="581" d="M96 416q0 26 27 26h438q27 0 27 -26q0 -27 -27 -27h-438q-27 0 -27 27zM96 518q0 27 27 27h438q27 0 27 -27t-27 -26h-438q-27 0 -27 26zM96 621q0 26 27 26h438q27 0 27 -26q0 -27 -27 -27h-438q-27 0 -27 27z" />
<glyph unicode="&#xd0;" horiz-adv-x="1292" d="M78 705q0 14 26 20l369 80l189 325q10 16 24 17q12 0 23 -17l190 -325l367 -80q27 -6 26 -20q0 -8 -12 -23l-250 -281l37 -374q2 -18 -9 -27.5t-28 -1.5l-344 154l-346 -154q-16 -8 -27.5 1t-9.5 28l39 374l-252 281q-12 14 -12 23zM160 684l229 -256q8 -8 6 -20 l-35 -342l314 139q12 4 22 0l314 -139l-35 342q0 10 8 20l227 256l-336 72q-10 2 -16 12l-172 297l-174 -297q-4 -10 -16 -12zM270 643q0 14 27 21l242 51l123 213q12 20 22 20q12 0 25 -20l122 -213l242 -51q27 -6 27 -21q0 -10 -13 -25l-163 -182l24 -246q2 -18 -10 -26 q-10 -8 -27 0l-225 98l-225 -98q-18 -8 -29 0q-10 8 -10 26l27 246l-166 182q-12 12 -13 25zM354 621l142 -158q8 -10 6 -21l-21 -211l193 84q12 6 22 0l195 -84l-23 211q1 13 9 21l141 158l-209 45q-10 2 -16 12l-107 184l-106 -184q-6 -10 -19 -12zM467 580q0 12 33 22 q18 4 104 23q66 117 84 116q11 0 21 -16l57 -100q100 -23 104 -23q33 -10 33 -22t-86 -109q10 -106 10 -115q0 -31 -18 -30q-12 0 -123 49q-113 -49 -125 -49q-18 0 -18 30q0 8 12 115q-88 96 -88 109zM547 557q61 -68 61 -86q-2 -8 -8 -76q78 35 86 35t84 -35l-8 76 q0 18 61 86q-78 18 -88 24t-49 76q-41 -70 -50 -76t-89 -24z" />
<glyph unicode="&#xd6;" d="M80 379v389q0 158 110.5 267.5t268.5 109.5t267.5 -109.5t109.5 -267.5t-110 -268.5t-267 -110.5q-63 0 -121 19v-29q0 -51 35 -86t86 -35t85 35t34 86q0 27 26 27q27 0 27 -27q0 -72 -50.5 -123t-121.5 -51q-72 0 -123 51t-51 123v389q0 72 51 122t123 50q70 0 121 -51 t51 -121q0 -72 -50.5 -123t-121.5 -51q-70 0 -121 49v-63q55 -35 121 -35q92 0 156.5 65.5t64.5 157.5q0 90 -65.5 155.5t-155.5 65.5q-92 0 -157.5 -64.5t-65.5 -156.5v-389q0 -92 65.5 -157.5t157.5 -65.5t156.5 65.5t64.5 157.5q0 27 27 27t26 -27q0 -115 -80 -196 t-194 -81q-115 0 -196 81t-81 196v389q0 115 81 194.5t196 79.5q113 0 193.5 -80.5t80.5 -193.5q0 -115 -80 -195.5t-194 -80.5q-63 0 -121 26v-53q57 -23 121 -23q135 0 229 95.5t94 230.5q0 133 -95 228.5t-228 95.5q-135 0 -230.5 -94.5t-95.5 -229.5v-389 q0 -135 95.5 -230.5t230.5 -95.5t229 95.5t94 230.5q0 27 27 27t27 -27q0 -158 -110 -268.5t-267 -110.5q-160 0 -269.5 109.5t-109.5 269.5zM338 768q0 -51 35 -86t86 -35t85 35t34 86q0 49 -35 84t-84 35q-51 0 -86 -34t-35 -85z" />
<glyph unicode="&#xdc;" horiz-adv-x="839" d="M80 27v741q0 158 110.5 267.5t268.5 109.5t267.5 -109.5t109.5 -267.5q0 -29 -27 -29t-27 29q0 133 -95 228.5t-228 95.5q-135 0 -230.5 -94.5t-95.5 -229.5v-741q0 -27 -27 -27t-26 27zM182 27v741q0 115 81 194.5t196 79.5q113 0 193.5 -80.5t80.5 -193.5 q0 -29 -26 -29q-27 0 -27 29q0 90 -65.5 155.5t-155.5 65.5q-92 0 -157.5 -64.5t-65.5 -156.5v-741q0 -27 -27 -27t-27 27zM285 27v741q0 72 51 122t123 50q70 0 121 -51t51 -121q0 -29 -27 -29q-26 0 -26 29q0 49 -35 84t-84 35q-51 0 -86 -34t-35 -85v-63h471q27 0 27 -27 t-27 -27h-471v-49h471q27 0 27 -27t-27 -26h-471v-49h471q27 0 27 -27t-27 -27h-471v-419q0 -27 -27 -27t-26 27z" />
<glyph unicode="&#xdd;" horiz-adv-x="1292" d="M78 705q0 14 26 20l369 80l189 325q10 16 24 17q12 0 23 -17l190 -325l367 -80q27 -6 26 -20q0 -8 -12 -23l-250 -281l37 -374q2 -18 -9 -27.5t-28 -1.5l-344 154l-346 -154q-16 -8 -27.5 1t-9.5 28l39 374l-252 281q-12 14 -12 23zM160 684l229 -256q8 -8 6 -20 l-35 -342l314 139q12 4 22 0l314 -139l-35 342q0 10 8 20l227 256l-336 72q-10 2 -16 12l-172 297l-174 -297q-4 -10 -16 -12zM270 643q0 14 27 21l242 51l123 213q12 20 22 20q12 0 25 -20l122 -213l242 -51q27 -6 27 -21q0 -10 -13 -25l-163 -182l24 -246q2 -18 -10 -26 q-10 -8 -27 0l-225 98l-225 -98q-18 -8 -29 0q-10 8 -10 26l27 246l-166 182q-12 12 -13 25zM354 621l142 -158q8 -10 6 -21l-21 -211l193 84q12 6 22 0l195 -84l-23 211q1 13 9 21l141 158l-209 45q-10 2 -16 12l-107 184l-106 -184q-6 -10 -19 -12zM467 580q0 12 33 22 q18 4 104 23q66 117 84 116q11 0 21 -16l57 -100q100 -23 104 -23q33 -10 33 -22t-86 -109q10 -106 10 -115q0 -31 -18 -30q-12 0 -123 49q-113 -49 -125 -49q-18 0 -18 30q0 8 12 115q-88 96 -88 109zM547 557q61 -68 61 -86q-2 -8 -8 -76q78 35 86 35t84 -35l-8 76 q0 18 61 86q-78 18 -88 24t-49 76q-41 -70 -50 -76t-89 -24z" />
<glyph unicode="&#xde;" horiz-adv-x="1292" d="M78 705q0 14 26 20l369 80l189 325q10 16 24 17q12 0 23 -17l190 -325l367 -80q27 -6 26 -20q0 -8 -12 -23l-250 -281l37 -374q2 -18 -9 -27.5t-28 -1.5l-344 154l-346 -154q-16 -8 -27.5 1t-9.5 28l39 374l-252 281q-12 14 -12 23zM160 684l229 -256q8 -8 6 -20 l-35 -342l314 139q12 4 22 0l314 -139l-35 342q0 10 8 20l227 256l-336 72q-10 2 -16 12l-172 297l-174 -297q-4 -10 -16 -12zM270 643q0 14 27 21l242 51l123 213q12 20 22 20q12 0 25 -20l122 -213l242 -51q27 -6 27 -21q0 -10 -13 -25l-163 -182l24 -246q2 -18 -10 -26 q-10 -8 -27 0l-225 98l-225 -98q-18 -8 -29 0q-10 8 -10 26l27 246l-166 182q-12 12 -13 25zM354 621l142 -158q8 -10 6 -21l-21 -211l193 84q12 6 22 0l195 -84l-23 211q1 13 9 21l141 158l-209 45q-10 2 -16 12l-107 184l-106 -184q-6 -10 -19 -12zM467 580q0 12 33 22 q18 4 104 23q66 117 84 116q11 0 21 -16l57 -100q100 -23 104 -23q33 -10 33 -22t-86 -109q10 -106 10 -115q0 -31 -18 -30q-12 0 -123 49q-113 -49 -125 -49q-18 0 -18 30q0 8 12 115q-88 96 -88 109zM547 557q61 -68 61 -86q-2 -8 -8 -76q78 35 86 35t84 -35l-8 76 q0 18 61 86q-78 18 -88 24t-49 76q-41 -70 -50 -76t-89 -24z" />
<glyph unicode="&#xe1;" d="M80 27q0 27 26 26h353q135 0 229 95.5t94 230.5v713h-323q-135 0 -230.5 -94.5t-95.5 -229.5t95.5 -230.5t230.5 -95.5q61 0 119 23v53q-57 -27 -119 -26q-115 0 -196 80.5t-81 195.5t81 194.5t196 79.5h248q27 0 26 -26v-637q0 -115 -80 -196t-194 -81h-353 q-27 0 -26 27q0 27 26 27h353q92 0 156.5 65.5t64.5 157.5v610h-221q-92 0 -157.5 -64.5t-65.5 -156.5t65.5 -157.5t157.5 -65.5q63 0 119 35v63q-51 -49 -119 -49q-72 0 -123 51t-51 123q0 74 50 123t124 49h145q27 0 27 -27v-534q0 -72 -50.5 -123t-121.5 -51h-353 q-27 0 -26 26q0 27 26 27h353q51 0 85 35t34 86v29q-57 -18 -119 -19q-160 0 -269.5 109.5t-109.5 269.5q0 158 110.5 267.5t268.5 109.5h350q27 0 27 -27v-739q0 -158 -110 -268.5t-267 -110.5h-353q-27 0 -26 27zM338 768q0 -51 35 -86t86 -35t85 35t34 86v119h-119 q-51 0 -86 -34t-35 -85z" />
<glyph unicode="&#xe3;" horiz-adv-x="835" d="M80 25v1091q0 27 26 27q27 0 27 -27v-1091q0 -27 -27 -27q-26 0 -26 27zM182 25v1091q0 27 27 27t27 -27v-1091q0 -27 -27 -27t-27 27zM285 25v1091q0 27 26 27q27 0 27 -27v-414h94l137 422q4 18 23 19q37 0 26 -35l-131 -408q25 0 50 -6l139 430q6 18 24 19 q39 0 27 -35l-139 -428q23 -8 45 -21l151 465q6 18 25 19q35 0 25 -35l-154 -477q156 -113 156 -305v-301q0 -27 -27 -27t-27 27v301q0 133 -95 228t-228 95h-121v-49h121q113 0 193.5 -81t80.5 -193v-301q0 -27 -26 -27q-27 0 -27 27v301q0 90 -65.5 155.5t-155.5 65.5 h-121v-49h121q70 0 121 -51.5t51 -120.5v-301q0 -27 -27 -27t-26 27v301q0 49 -35 83.5t-84 34.5h-121v-419q0 -27 -27 -27t-26 27z" />
<glyph unicode="&#xe4;" horiz-adv-x="339" d="M-418 -78q0 29 27 29t26 -29q0 -133 95.5 -228t228.5 -95q135 0 230.5 94t95.5 229v891q0 27 26 27q27 0 27 -27v-891q0 -158 -110.5 -267.5t-268.5 -109.5t-267.5 109.5t-109.5 267.5zM-315 -78q0 29 26 29q27 0 27 -29q0 -90 65.5 -155.5t155.5 -65.5q92 0 157.5 64.5 t65.5 156.5v891q0 27 27 27t27 -27v-891q0 -115 -81 -194.5t-196 -79.5q-113 0 -193.5 81t-80.5 193zM-213 -78q0 29 27 29t26 -29q0 -49 35 -84t84 -35q51 0 86 34t35 85v891q0 27 26 27q27 0 27 -27v-891q0 -72 -51 -122t-123 -50q-70 0 -121 51.5t-51 120.5zM68 913 q0 27 26 27h215q27 0 27 -27q0 -26 -27 -26h-215q-27 0 -26 26zM68 1016q0 27 26 26h215q27 0 27 -26q0 -27 -27 -27h-215q-27 0 -26 27zM68 1118q0 27 26 27h215q27 0 27 -27q0 -26 -27 -26h-215q-27 0 -26 26z" />
<glyph unicode="&#xea;" horiz-adv-x="835" d="M80 27v1091q0 27 26 27h353q158 0 267.5 -109.5t109.5 -267.5t-110 -268.5t-267 -110.5h-121v-362q0 -27 -27 -27q-26 0 -26 27v886q0 27 26 27h148q72 0 122 -50t50 -122t-50.5 -123t-121.5 -51h-121v-49h121q92 0 156.5 65.5t64.5 157.5q0 90 -65.5 155.5t-155.5 65.5 h-223v-962q0 -27 -27 -27t-27 27v989q0 27 27 26h250q113 0 193.5 -80.5t80.5 -193.5q0 -115 -80 -195.5t-194 -80.5h-121v-50h121q135 0 229 95.5t94 230.5q0 133 -95 228.5t-228 95.5h-326v-1065q0 -27 -27 -27t-26 27zM338 647h121q51 0 85 35t34 86q0 49 -35 84t-84 35 h-121v-240z" />
<glyph unicode="&#xeb;" d="M80 768q0 158 110.5 267.5t268.5 109.5h350q27 0 27 -27v-1091q0 -27 -27 -27t-27 27v1065h-323q-135 0 -230.5 -94.5t-95.5 -229.5t95.5 -230.5t230.5 -95.5h119v50h-119q-115 0 -196 80.5t-81 195.5t81 194.5t196 79.5h248q27 0 26 -26v-989q0 -27 -26 -27 q-27 0 -27 27v962h-221q-92 0 -157.5 -64.5t-65.5 -156.5t65.5 -157.5t157.5 -65.5h119v49h-119q-72 0 -123 51t-51 123q0 74 50 123t124 49h145q27 0 27 -27v-886q0 -27 -27 -27q-26 0 -26 27v362h-119q-160 0 -269.5 109.5t-109.5 269.5zM338 768q0 -51 35 -86t86 -35h119 v240h-119q-51 0 -86 -34t-35 -85z" />
<glyph unicode="&#xec;" d="M80 27q0 27 26 26h353q135 0 229 95.5t94 230.5v272h-497v117q0 72 51 122t123 50h350q27 0 27 -27q0 -26 -27 -26h-350q-51 0 -86 -34t-35 -85v-63h498q0 12 2 0h-2v-326q0 -158 -110 -268.5t-267 -110.5h-353q-27 0 -26 27zM80 129q0 27 26 27h353q92 0 156.5 65.5 t64.5 157.5v170h-498v219q0 115 81 194.5t196 79.5h350q27 0 27 -26q0 -27 -27 -27h-350q-92 0 -157.5 -64.5t-65.5 -156.5v-166h497v-223q0 -115 -80 -196t-194 -81h-353q-27 0 -26 27zM80 231q0 27 26 27h353q51 0 85 35t34 86v67h-498v322q0 158 110.5 267.5t268.5 109.5 h350q27 0 27 -27q0 -26 -27 -26h-350q-135 0 -230.5 -94.5t-95.5 -229.5v-268h498v-121q0 -72 -50.5 -123t-121.5 -51h-353q-27 0 -26 26z" />
<glyph unicode="&#xed;" d="M80 27v1091q0 27 26 27h353q158 0 267.5 -109.5t109.5 -267.5v-193q0 -27 -27 -26q-27 0 -27 26v193q0 133 -95 228.5t-228 95.5h-326v-1065q0 -27 -27 -27q-26 0 -26 27zM182 27v989q0 27 27 26h250q113 0 193.5 -80.5t80.5 -193.5v-193q0 -27 -26 -26q-27 0 -27 26v193 q0 90 -65.5 155.5t-155.5 65.5h-223v-962q0 -27 -27 -27t-27 27zM285 27v886q0 27 26 27h148q72 0 122 -50t50 -122v-193q0 -27 -27 -26q-27 0 -26 26v193q0 49 -35 84t-84 35h-121v-860q0 -27 -27 -27q-26 0 -26 27z" />
<glyph unicode="&#xee;" horiz-adv-x="835" d="M80 379v739q0 27 26 27q27 0 27 -27v-184h49v184q0 27 27 27t27 -27v-184h49v184q0 27 26 27q27 0 27 -27v-184h471q27 0 27 -27t-27 -26h-676v-502q0 -135 95.5 -230.5t230.5 -95.5t229 95.5t94 230.5v196q0 27 27 27t27 -27v-196q0 -158 -110 -268.5t-267 -110.5 q-160 0 -269.5 109.5t-109.5 269.5zM182 379v452h627q27 0 27 -26q0 -27 -27 -27h-573v-399q0 -92 65.5 -157.5t157.5 -65.5t156.5 65.5t64.5 157.5v196q0 27 27 27t26 -27v-196q0 -115 -80 -196t-194 -81q-115 0 -196 81t-81 196zM285 379v350h524q27 0 27 -27 q0 -26 -27 -26h-471v-297q0 -51 35 -86t86 -35t85 35t34 86v196q0 27 26 27q27 0 27 -27v-196q0 -72 -50.5 -123t-121.5 -51q-72 0 -123 51t-51 123z" />
<glyph unicode="&#xf0;" horiz-adv-x="1083" d="M80 690q0 14 26 21l285 61l146 252q12 20 22 20q12 0 25 -20l145 -252l285 -61q27 -6 26 -21q0 -8 -12 -22l-194 -217l30 -289q2 -18 -10 -27q-10 -8 -27 0l-266 117l-266 -117q-18 -8 -29 0q-12 8 -10 27l31 289l-195 217q-12 14 -12 22zM162 670l172 -193q8 -8 6 -20 l-27 -256l236 104q12 4 22 0l236 -104l-27 256q-2 12 6 20l172 193l-251 53q-10 2 -17 12l-129 223l-131 -223q-6 -10 -16 -12zM276 627q0 16 44.5 26.5t136.5 28.5q20 39 65 117q23 39 39 39q14 0 37 -39q14 -27 66 -117l137 -29q43 -10 43 -26q0 -13 -117 -142l16 -155 q0 -33 -18 -33q-12 0 -164 65q-154 -66 -166 -65q-18 0 -18 33l16 155q-117 129 -117 142zM356 606l84 -94q8 -8 6 -20l-12 -125l115 51q12 4 22 0l115 -51l-12 125q-2 12 6 20l84 94l-123 27q-12 2 -16 12l-64 109l-65 -109q-4 -10 -17 -12zM471 565q0 16 23 21l28 6 q25 43 41 43q10 0 21 -19l14 -24q53 -12 53 -29q0 -8 -10 -20l-20 -23q6 -61 -17 -61q-8 0 -16 4l-27 12l-29 -12q-10 -4 -16 -4q-23 0 -16 61q-29 31 -29 45zM549 543q2 -6 4 -15q6 2 14 0q2 9 4 15q-6 4 -10 10q-6 -6 -12 -10z" />
<glyph unicode="&#xf4;" d="M80 27q0 27 26 26h353q135 0 229 95.5t94 230.5v739q0 27 27 27t27 -27v-739q0 -158 -110 -268.5t-267 -110.5h-353q-27 0 -26 27zM80 129q0 27 26 27h353q92 0 156.5 65.5t64.5 157.5v739q0 27 27 27q26 0 26 -27v-739q0 -115 -80 -196t-194 -81h-353q-27 0 -26 27z M80 231q0 27 26 27h353q51 0 85 35t34 86v86q-57 -18 -119 -19q-160 0 -269.5 110t-109.5 269v293q0 27 26 27q27 0 27 -27v-293q0 -135 95.5 -230t230.5 -95q61 0 119 22v53q-57 -27 -119 -26q-115 0 -196 81t-81 195v293q0 27 27 27t27 -27v-293q0 -92 65.5 -157.5 t157.5 -65.5q63 0 119 35v63q-51 -49 -119 -49q-72 0 -123 51.5t-51 122.5v293q0 27 26 27q27 0 27 -27v-293q0 -51 35 -85.5t86 -34.5t85 34.5t34 85.5v293q0 27 26 27q27 0 27 -27v-739q0 -72 -50.5 -123t-121.5 -51h-353q-27 0 -26 26z" />
<glyph unicode="&#xfe;" horiz-adv-x="1083" d="M80 690q0 14 26 21l285 61l146 252q12 20 22 20q12 0 25 -20l145 -252l285 -61q27 -6 26 -21q0 -8 -12 -22l-194 -217l30 -289q2 -18 -10 -27q-10 -8 -27 0l-266 117l-266 -117q-18 -8 -29 0q-12 8 -10 27l31 289l-195 217q-12 14 -12 22zM162 670l172 -193q8 -8 6 -20 l-27 -256l236 104q12 4 22 0l236 -104l-27 256q-2 12 6 20l172 193l-251 53q-10 2 -17 12l-129 223l-131 -223q-6 -10 -16 -12zM276 627q0 16 44.5 26.5t136.5 28.5q20 39 65 117q23 39 39 39q14 0 37 -39q14 -27 66 -117l137 -29q43 -10 43 -26q0 -13 -117 -142l16 -155 q0 -33 -18 -33q-12 0 -164 65q-154 -66 -166 -65q-18 0 -18 33l16 155q-117 129 -117 142zM356 606l84 -94q8 -8 6 -20l-12 -125l115 51q12 4 22 0l115 -51l-12 125q-2 12 6 20l84 94l-123 27q-12 2 -16 12l-64 109l-65 -109q-4 -10 -17 -12zM471 565q0 16 23 21l28 6 q25 43 41 43q10 0 21 -19l14 -24q53 -12 53 -29q0 -8 -10 -20l-20 -23q6 -61 -17 -61q-8 0 -16 4l-27 12l-29 -12q-10 -4 -16 -4q-23 0 -16 61q-29 31 -29 45zM549 543q2 -6 4 -15q6 2 14 0q2 9 4 15q-6 4 -10 10q-6 -6 -12 -10z" />
<glyph unicode="&#x2000;" horiz-adv-x="682" />
<glyph unicode="&#x2001;" horiz-adv-x="1365" />
<glyph unicode="&#x2002;" horiz-adv-x="682" />
<glyph unicode="&#x2003;" horiz-adv-x="1365" />
<glyph unicode="&#x2004;" horiz-adv-x="455" />
<glyph unicode="&#x2005;" horiz-adv-x="341" />
<glyph unicode="&#x2006;" horiz-adv-x="227" />
<glyph unicode="&#x2007;" horiz-adv-x="227" />
<glyph unicode="&#x2008;" horiz-adv-x="170" />
<glyph unicode="&#x2009;" horiz-adv-x="273" />
<glyph unicode="&#x200a;" horiz-adv-x="75" />
<glyph unicode="&#x2010;" horiz-adv-x="581" d="M96 416q0 26 27 26h438q27 0 27 -26q0 -27 -27 -27h-438q-27 0 -27 27zM96 518q0 27 27 27h438q27 0 27 -27t-27 -26h-438q-27 0 -27 26zM96 621q0 26 27 26h438q27 0 27 -26q0 -27 -27 -27h-438q-27 0 -27 27z" />
<glyph unicode="&#x2011;" horiz-adv-x="581" d="M96 416q0 26 27 26h438q27 0 27 -26q0 -27 -27 -27h-438q-27 0 -27 27zM96 518q0 27 27 27h438q27 0 27 -27t-27 -26h-438q-27 0 -27 26zM96 621q0 26 27 26h438q27 0 27 -26q0 -27 -27 -27h-438q-27 0 -27 27z" />
<glyph unicode="&#x2012;" horiz-adv-x="581" d="M96 416q0 26 27 26h438q27 0 27 -26q0 -27 -27 -27h-438q-27 0 -27 27zM96 518q0 27 27 27h438q27 0 27 -27t-27 -26h-438q-27 0 -27 26zM96 621q0 26 27 26h438q27 0 27 -26q0 -27 -27 -27h-438q-27 0 -27 27z" />
<glyph unicode="&#x2013;" horiz-adv-x="1113" d="M96 416q0 26 56 26h912q56 0 56 -26q0 -27 -56 -27h-912q-56 0 -56 27zM96 518q0 27 56 27h912q56 0 56 -27t-56 -26h-912q-56 0 -56 26zM96 621q0 26 56 26h912q56 0 56 -26q0 -27 -56 -27h-912q-56 0 -56 27z" />
<glyph unicode="&#x2014;" horiz-adv-x="2137" d="M96 416q0 26 112 26h1824q112 0 112 -26q0 -27 -112 -27h-1824q-112 0 -112 27zM96 518q0 27 112 27h1824q112 0 112 -27t-112 -26h-1824q-112 0 -112 26zM96 621q0 26 112 26h1824q112 0 112 -26q0 -27 -112 -27h-1824q-112 0 -112 27z" />
<glyph unicode="&#x2022;" horiz-adv-x="839" d="M80 379v389q0 158 110.5 267.5t268.5 109.5t267.5 -109.5t109.5 -267.5t-110 -268.5t-267 -110.5h-121v-10q0 -51 35 -86t86 -35t85 35t34 86q0 27 26 27q27 0 27 -27q0 -72 -50.5 -123t-121.5 -51q-72 0 -123 51t-51 123v389q0 72 51 122t123 50q70 0 121 -51t51 -121 q0 -74 -49.5 -124t-122.5 -50h-121v-49h121q92 0 156.5 65.5t64.5 157.5q0 90 -65.5 155.5t-155.5 65.5q-92 0 -157.5 -64.5t-65.5 -156.5v-389q0 -92 65.5 -157.5t157.5 -65.5t156.5 65.5t64.5 157.5q0 27 27 27t26 -27q0 -115 -80 -196t-194 -81q-115 0 -196 81t-81 196 v389q0 115 81 194.5t196 79.5q113 0 193.5 -80.5t80.5 -193.5q0 -115 -80 -195.5t-194 -80.5h-121v-50h121q135 0 229 95.5t94 230.5q0 133 -95 228.5t-228 95.5q-135 0 -230.5 -94.5t-95.5 -229.5v-389q0 -135 95.5 -230.5t230.5 -95.5t229 95.5t94 230.5q0 27 27 27 t27 -27q0 -158 -110 -268.5t-267 -110.5q-160 0 -269.5 109.5t-109.5 269.5zM338 647h121q51 0 85 35t34 86q0 49 -35 84t-84 35q-51 0 -86 -34t-35 -85v-121z" />
<glyph unicode="&#x202f;" horiz-adv-x="273" />
<glyph unicode="&#x205f;" horiz-adv-x="341" />
<glyph unicode="&#x25fc;" horiz-adv-x="1146" d="M0 0v1147h1147v-1147h-1147z" />
</font>
</defs>
</svg>
